<?xml version="1.0" encoding="UTF-8" standalone="no"?>
<!-- Created with Inkscape (http://www.inkscape.org/) -->

<svg
   version="1.1"
   id="svg1"
   width="120.07898"
   height="133.75999"
   viewBox="0 0 120.07898 133.75999"
   xmlns="http://www.w3.org/2000/svg"
   xmlns:svg="http://www.w3.org/2000/svg">
  <defs
     id="defs1" />
  <g
     id="g1"
     transform="translate(586.48615,257.23078)">
    <g
       id="g2"
       transform="translate(-586.48613,-257.23076)">
      <path
         style="fill:#c4a4cd"
         d="m 25.491662,133.64005 c 2.976414,-0.0244 7.800414,-0.0244 10.72,3e-5 2.919586,0.0244 0.484338,0.0444 -5.411662,0.0443 -5.896,-2e-5 -8.284752,-0.02 -5.308338,-0.0444 z M 18.24,59.939589 c 0,-0.03322 0.126,-0.159225 0.28,-0.28 0.253769,-0.19902 0.259428,-0.19336 0.06041,0.06041 C 18.37139,59.986517 18.24,60.071274 18.24,59.939589 Z M 80.882814,42.039998 C 69.458695,32.249999 60.068559,24.251999 60.015845,24.266666 59.96313,24.281332 59.92,18.827333 59.92,12.146666 59.92,5.4659998 59.932042,0 59.94676,0 c 0.08478,0 59.86384,51.304589 59.91326,51.419766 0.0531,0.123688 -17.76043,8.420232 -18.07908,8.420232 -0.0699,0 -9.474007,-8.01 -20.898126,-17.8 z"
         id="path8" />
      <path
         style="fill:#76c8ea"
         d="M 43.878115,124.59674 34.72,115.43348 v -6.89351 c 0,-3.79143 0.07463,-7.82196 0.165834,-8.956739 0.561353,-6.984108 3.114838,-12.99852 7.41348,-17.461522 2.012149,-2.089084 3.792315,-3.434103 6.175346,-4.665833 3.456609,-1.786636 6.38382,-2.534661 10.508337,-2.68532 2.974821,-0.108663 4.863735,0.07935 7.497003,0.746225 4.167538,1.055426 7.690515,3.09942 10.888308,6.317282 3.144267,3.164 5.461736,7.327117 6.683306,12.005933 0.920414,3.525341 0.955942,3.978672 1.027223,13.107004 l 0.06612,8.467 -9.171955,9.173 -9.171956,9.17299 h -6.882407 -6.882407 z m 17.386412,-3.48991 c 0.761204,-0.46406 1.093069,-0.90288 1.373294,-1.81588 0.202813,-0.66078 0.242179,-2.12079 0.242179,-8.98186 v -8.19282 l 3.32,-0.0767 c 3.768051,-0.0871 4.616894,-0.26154 5.425385,-1.11517 1.382161,-1.459324 0.979291,-3.486739 -0.873665,-4.396667 -0.900631,-0.442272 -0.953903,-0.448338 -4.380054,-0.498786 l -3.468334,-0.05107 -0.05167,-3.228931 c -0.0506,-3.162538 -0.06087,-3.247677 -0.499383,-4.14065 -0.575406,-1.171745 -1.284679,-1.641847 -2.451707,-1.624977 -1.165453,0.01685 -1.849326,0.47741 -2.412859,1.624977 -0.438473,0.892895 -0.448783,0.978334 -0.499354,4.13812 l -0.05164,3.2264 -3.388363,0.0536 -3.388363,0.0536 -0.96,0.48 c -1.327323,0.663661 -1.727324,1.286468 -1.648547,2.566807 0.07303,1.186877 0.483879,1.826837 1.483477,2.310737 0.988169,0.47837 2.297085,0.63549 5.32507,0.63924 l 2.6,0.003 v 8.13096 c 0,8.71805 0.03773,9.18363 0.825472,10.18508 0.83692,1.06397 2.381955,1.37963 3.479055,0.71079 z M 56.64,70.879498 c -4.498931,-1.114722 -8.10798,-4.476376 -9.618859,-8.959501 -0.454449,-1.348453 -0.520355,-1.772804 -0.583972,-3.759999 -0.06037,-1.885747 -0.01909,-2.460378 0.261012,-3.633482 1.179108,-4.938249 4.915663,-8.749095 9.861819,-10.057893 1.731754,-0.458237 4.612198,-0.498664 6.4,-0.08982 3.21238,0.73462 6.373579,2.884526 8.224573,5.593468 0.746989,1.093223 1.690569,3.193144 2.025505,4.507729 0.420285,1.649565 0.385275,4.858022 -0.07158,6.559999 -1.353096,5.040849 -5.331526,8.88358 -10.273594,9.923176 -1.593328,0.335166 -4.703205,0.293364 -6.224904,-0.08367 z"
         id="path7" />
      <path
         style="fill:#d9dd1d"
         d="m 67.04,133.63947 c 0,-0.0663 4.086235,-4.20629 9.080522,-9.2 L 85.201044,115.36 h 8.24 8.239996 l 9.19896,9.19999 9.19896,9.2 H 93.559478 c -14.585713,0 -26.519478,-0.0542 -26.519478,-0.12052 z"
         id="path6" />
      <path
         style="fill:#faad16"
         d="M 0,92.617634 V 51.556325 l 9.1152868,4.181836 9.1152872,4.181837 0.0047,27.760525 0.0047,27.760527 -9.12,9.11894 -9.12,9.11895 z"
         id="path5" />
      <path
         style="fill:#ef6569"
         d="M 20.801131,133.64 0.08226213,133.59878 9.2006047,124.47939 18.318947,115.36 h 8.161048 8.161048 l 9.198957,9.19999 9.198957,9.2 -5.759479,-0.0394 c -3.167713,-0.0217 -15.082969,-0.0579 -26.478347,-0.0806 z"
         id="path4" />
      <path
         style="fill:#6aa979"
         d="m 110.84,124.52001 -9.08,-9.08106 V 87.672666 59.90638 l 9.08,-4.173022 9.08,-4.173021 0.0406,20.552705 c 0.0223,11.303987 0.0223,29.763148 0,41.020358 l -0.0406,20.46766 z"
         id="path3" />
      <path
         style="fill:#1e6ea7"
         d="M 9.0769226,55.644762 C 4.08123,53.344327 0.04923,51.412377 0.11692258,51.35154 0.46558074,51.038193 59.487108,0.52720063 59.722856,0.34040883 59.985202,0.13254229 60,0.76078692 60,12.106854 V 24.092889 L 39.193917,41.926443 c -11.443346,9.808455 -20.857346,17.848714 -20.92,17.867241 -0.06265,0.01853 -4.201302,-1.848487 -9.1969944,-4.148922 z"
         id="path2" />
    </g>
  </g>
</svg>
