<svg id="svg" version="1.1" width="1664" height="1024" xmlns="http://www.w3.org/2000/svg"><path d="M456.456 7.071 C 456.092 7.660,456.091 10.118,456.453 12.533 C 456.821 14.991,456.661 17.764,456.090 18.833 C 455.528 19.882,452.146 34.862,448.575 52.121 C 438.469 100.965,434.301 120.829,430.051 140.402 C 419.213 190.324,408.545 242.883,382.473 374.813 L 380.039 387.125 371.200 399.813 C 366.339 406.791,358.831 418.125,354.515 425.000 C 350.200 431.875,345.584 438.445,344.257 439.599 L 341.846 441.698 341.959 500.146 C 342.022 532.292,341.817 558.849,341.505 559.162 C 341.192 559.474,338.838 559.338,336.273 558.859 C 333.709 558.380,320.560 556.861,307.055 555.484 C 285.971 553.334,228.488 547.107,215.189 545.532 L 210.878 545.022 208.835 549.761 C 207.711 552.367,204.168 560.350,200.961 567.500 C 197.754 574.650,191.304 589.275,186.628 600.000 L 178.127 619.500 162.313 622.617 C 153.616 624.332,144.925 626.028,143.000 626.386 C 140.246 626.899,138.221 628.561,133.500 634.183 C 130.200 638.113,124.575 644.780,121.000 648.999 C 117.425 653.217,110.225 661.768,105.000 668.001 C 99.775 674.233,91.740 683.645,87.145 688.916 C 82.549 694.187,75.437 702.662,71.339 707.748 L 63.888 716.996 63.970 746.277 L 64.051 775.558 60.775 778.639 C 57.046 782.146,18.414 813.402,9.836 819.852 C 6.720 822.194,3.919 824.769,3.611 825.572 C 3.302 826.376,3.014 850.764,2.969 879.767 L 2.889 932.500 13.195 933.258 C 18.863 933.675,35.650 934.938,50.500 936.065 C 65.350 937.192,89.200 938.974,103.500 940.025 C 141.796 942.840,156.113 943.998,159.750 944.575 L 163.000 945.091 163.000 951.973 L 163.000 958.856 168.250 959.413 C 171.137 959.720,189.025 961.114,208.000 962.513 C 226.975 963.911,250.150 965.768,259.500 966.639 C 273.943 967.985,279.658 968.049,297.500 967.065 C 330.037 965.271,392.846 962.111,420.500 960.877 C 441.511 959.940,448.931 960.014,467.000 961.343 C 478.825 962.213,506.725 964.128,529.000 965.599 C 551.275 967.070,570.495 968.644,571.711 969.097 C 573.846 969.893,573.901 970.256,573.317 979.830 L 572.714 989.740 581.607 990.426 C 586.498 990.804,599.050 991.964,609.500 993.005 C 648.418 996.882,653.256 997.204,654.019 995.970 C 654.564 995.088,659.084 995.085,672.769 995.958 C 686.047 996.805,695.639 996.821,709.150 996.021 C 719.243 995.423,738.300 994.284,751.500 993.489 C 826.824 988.952,830.236 988.844,864.000 989.937 C 914.899 991.586,963.690 992.939,1011.500 994.028 C 1035.700 994.579,1066.300 995.461,1079.500 995.987 C 1113.702 997.351,1133.042 997.231,1161.000 995.483 C 1190.566 993.634,1221.013 992.345,1221.584 992.917 C 1221.813 993.146,1222.000 998.160,1222.000 1004.058 L 1222.000 1014.783 1240.750 1015.450 C 1251.063 1015.817,1260.400 1016.508,1261.500 1016.986 C 1262.600 1017.463,1272.275 1018.356,1283.000 1018.969 C 1293.725 1019.583,1308.350 1020.520,1315.500 1021.052 C 1346.157 1023.334,1358.376 1023.960,1372.621 1023.979 L 1387.743 1024.000 1387.354 978.750 C 1386.823 917.083,1386.996 919.815,1383.091 911.474 C 1379.376 903.542,1375.122 898.684,1366.500 892.528 C 1352.938 882.844,1345.027 880.939,1317.500 880.729 C 1290.564 880.523,1281.518 883.272,1270.706 894.951 C 1261.779 904.593,1262.000 902.862,1262.000 963.023 L 1262.000 1014.683 1257.250 1013.917 C 1254.638 1013.496,1246.297 1012.824,1238.716 1012.425 C 1231.135 1012.026,1224.744 1011.394,1224.514 1011.022 C 1224.284 1010.650,1224.027 969.271,1223.942 919.069 L 1223.789 827.793 1228.277 821.146 C 1232.926 814.262,1241.513 800.440,1263.469 764.500 C 1270.525 752.950,1277.966 741.025,1280.004 738.000 C 1282.043 734.975,1287.407 726.462,1291.924 719.081 L 1300.137 705.663 1299.524 691.120 C 1299.187 683.122,1298.756 676.422,1298.565 676.232 C 1297.912 675.579,1276.061 704.837,1269.504 715.144 C 1265.895 720.818,1262.538 727.044,1262.043 728.980 C 1260.267 735.930,1259.000 745.857,1259.000 752.821 C 1259.000 758.828,1258.565 760.645,1256.151 764.706 C 1250.555 774.121,1212.063 832.432,1207.845 837.885 C 1205.582 840.810,1205.470 843.583,1207.582 844.393 C 1208.452 844.727,1211.773 845.000,1214.962 845.000 L 1220.759 845.000 1221.469 910.250 C 1221.859 946.137,1222.026 978.200,1221.839 981.500 L 1221.500 987.500 1217.000 987.731 C 1214.525 987.858,1199.000 988.723,1182.500 989.652 C 1166.000 990.582,1148.900 991.378,1144.500 991.421 L 1136.500 991.500 1136.500 819.190 C 1136.500 648.132,1136.515 646.866,1138.500 645.120 C 1139.600 644.153,1145.675 640.063,1152.000 636.032 C 1181.025 617.535,1209.030 599.305,1248.000 573.542 C 1268.075 560.270,1286.190 548.381,1288.256 547.120 C 1290.322 545.860,1291.777 544.449,1291.490 543.984 C 1291.203 543.519,1291.494 542.813,1292.138 542.415 C 1292.869 541.963,1293.041 542.124,1292.595 542.845 C 1291.285 544.966,1292.997 544.047,1303.565 536.957 C 1309.339 533.083,1314.769 529.642,1315.633 529.311 C 1316.757 528.879,1338.359 549.862,1391.602 603.102 L 1466.000 677.495 1466.000 690.887 L 1466.000 704.279 1450.750 703.588 C 1442.362 703.207,1432.575 702.708,1429.000 702.479 C 1425.425 702.249,1412.600 701.544,1400.500 700.912 C 1388.400 700.281,1378.355 699.635,1378.178 699.477 C 1378.002 699.319,1377.594 683.185,1377.272 663.624 C 1376.738 631.112,1376.830 628.003,1378.344 627.422 C 1381.066 626.377,1380.295 624.613,1374.176 617.895 C 1370.972 614.378,1364.610 606.775,1360.038 601.000 C 1346.798 584.277,1338.773 574.997,1337.594 575.043 C 1336.992 575.066,1334.712 577.429,1332.528 580.293 C 1329.243 584.598,1315.086 601.640,1301.601 617.522 C 1299.210 620.338,1298.920 621.199,1299.949 622.438 C 1300.895 623.578,1301.111 630.318,1300.848 650.413 C 1300.652 665.342,1300.866 675.930,1301.340 674.693 C 1301.978 673.027,1302.500 648.768,1302.500 620.810 C 1302.500 620.706,1310.375 620.337,1320.000 619.990 L 1337.500 619.360 1320.249 619.430 C 1310.761 619.468,1302.998 619.342,1302.999 619.150 C 1302.999 618.957,1307.181 614.007,1312.291 608.150 C 1324.794 593.819,1335.000 581.155,1335.000 579.970 C 1335.000 579.437,1335.450 579.000,1336.000 579.000 C 1336.550 579.000,1337.000 579.631,1337.000 580.401 C 1337.000 581.172,1338.806 587.584,1341.014 594.651 C 1345.688 609.615,1347.495 619.076,1345.871 620.080 C 1345.096 620.559,1345.102 620.945,1345.893 621.434 C 1346.502 621.810,1347.000 624.311,1347.000 626.991 C 1347.000 631.228,1346.621 632.134,1344.096 633.932 C 1340.566 636.445,1340.269 636.467,1339.689 634.250 C 1339.438 633.288,1339.180 633.962,1339.116 635.750 L 1339.000 639.000 1325.582 639.000 C 1318.202 639.000,1311.452 639.273,1310.582 639.607 C 1309.206 640.135,1309.000 643.058,1309.000 662.012 L 1309.000 683.810 1313.250 683.356 C 1315.588 683.106,1318.499 682.764,1319.720 682.595 C 1320.941 682.427,1321.721 682.643,1321.453 683.075 C 1321.186 683.508,1321.425 684.144,1321.984 684.490 C 1322.543 684.835,1323.000 684.641,1323.000 684.059 C 1323.000 683.477,1324.237 682.959,1325.750 682.910 C 1328.423 682.822,1328.408 682.793,1325.214 681.872 C 1323.160 681.279,1322.192 680.499,1322.630 679.789 C 1323.016 679.165,1322.257 679.407,1320.943 680.327 C 1319.630 681.247,1317.114 682.000,1315.353 682.000 L 1312.151 682.000 1312.043 662.500 L 1311.936 643.000 1315.718 642.814 C 1317.798 642.711,1320.977 642.552,1322.782 642.461 C 1324.587 642.369,1326.301 642.678,1326.591 643.147 C 1326.881 643.616,1326.682 644.000,1326.148 644.000 C 1325.615 644.000,1324.183 646.056,1322.966 648.570 C 1321.011 652.609,1320.833 654.090,1321.430 661.320 C 1321.802 665.819,1322.355 670.344,1322.660 671.375 C 1323.068 672.754,1322.855 673.042,1321.857 672.465 C 1321.111 672.033,1320.822 672.036,1321.215 672.471 C 1321.608 672.907,1321.459 674.142,1320.884 675.217 C 1320.309 676.292,1320.090 677.423,1320.397 677.731 C 1320.705 678.039,1321.388 677.213,1321.915 675.895 C 1322.610 674.157,1322.891 673.980,1322.937 675.250 C 1322.994 676.837,1324.014 677.413,1325.597 676.750 C 1325.926 676.612,1326.146 670.200,1326.087 662.500 C 1325.983 648.816,1326.641 645.042,1328.888 646.431 C 1329.626 646.887,1330.005 652.391,1330.015 662.809 C 1330.026 673.309,1330.351 678.004,1331.000 677.000 C 1332.291 675.002,1332.276 648.857,1330.982 645.452 C 1330.003 642.877,1330.070 642.800,1332.732 643.458 C 1334.254 643.834,1335.809 644.447,1336.186 644.821 C 1336.564 645.194,1337.194 653.304,1337.587 662.841 L 1338.301 680.182 1335.401 679.985 C 1330.222 679.633,1327.869 679.979,1328.500 681.000 C 1328.840 681.550,1331.116 682.000,1333.559 682.000 L 1338.000 682.000 1338.000 686.407 L 1338.000 690.813 1328.657 691.514 C 1323.519 691.899,1316.998 692.054,1314.168 691.857 C 1310.563 691.607,1308.869 691.895,1308.516 692.818 C 1308.105 693.888,1310.966 694.030,1323.755 693.571 C 1336.645 693.110,1339.559 692.735,1339.823 691.504 C 1340.044 690.476,1341.389 690.000,1344.073 690.000 L 1348.000 690.000 1348.000 694.097 L 1348.000 698.193 1342.999 697.847 C 1338.791 697.555,1337.999 697.774,1337.999 699.231 C 1338.000 701.274,1341.888 702.496,1345.500 701.589 C 1347.856 700.998,1348.000 701.193,1348.000 704.981 C 1348.000 707.887,1347.585 709.000,1346.500 709.000 C 1344.482 709.000,1344.609 709.774,1347.440 714.725 C 1349.698 718.675,1376.825 758.896,1387.754 774.500 C 1414.062 812.060,1421.317 822.493,1425.413 828.657 L 1430.170 835.814 1430.068 929.907 C 1429.977 1013.403,1430.136 1024.000,1431.483 1024.000 C 1433.232 1024.000,1433.215 1025.311,1433.004 909.750 C 1432.925 866.112,1433.237 838.000,1433.803 838.000 C 1435.049 838.000,1442.000 846.990,1442.000 848.603 C 1442.000 850.803,1449.311 851.115,1488.500 850.589 C 1509.400 850.308,1552.675 849.723,1584.667 849.289 C 1616.659 848.855,1643.059 848.275,1643.334 848.000 C 1643.609 847.725,1599.935 847.646,1546.280 847.824 C 1492.626 848.002,1447.700 847.890,1446.444 847.575 C 1443.591 846.859,1430.450 829.191,1392.836 775.500 C 1367.854 739.841,1350.000 714.062,1350.000 713.653 C 1350.000 713.411,1351.912 713.650,1354.250 714.184 C 1359.720 715.435,1381.000 716.734,1381.000 715.817 C 1381.000 715.432,1380.550 714.840,1380.000 714.500 C 1379.450 714.160,1379.000 711.144,1379.000 707.799 L 1379.000 701.715 1389.750 702.378 C 1395.662 702.743,1412.650 703.712,1427.500 704.533 C 1502.095 708.653,1529.592 710.006,1541.000 710.116 C 1557.867 710.279,1558.778 710.540,1562.988 716.426 C 1566.806 721.765,1591.055 754.115,1597.900 763.000 C 1603.795 770.654,1622.691 795.609,1641.378 820.419 C 1660.515 845.829,1662.756 848.577,1663.624 847.709 C 1663.998 847.335,1656.723 837.010,1647.457 824.765 C 1629.886 801.542,1582.325 738.030,1568.500 719.324 L 1560.500 708.500 1537.000 707.803 C 1510.467 707.016,1471.843 705.176,1471.343 704.676 C 1471.161 704.494,1470.844 697.921,1470.638 690.069 L 1470.265 675.793 1393.721 599.235 L 1317.177 522.678 1310.103 523.846 C 1306.213 524.488,1294.811 526.998,1284.765 529.424 C 1274.719 531.849,1256.150 536.102,1243.500 538.875 C 1230.850 541.648,1196.200 549.332,1166.500 555.951 C 1112.357 568.016,1081.775 574.784,1051.000 581.509 C 1041.925 583.492,1027.525 586.642,1019.000 588.508 C 1010.475 590.374,988.650 595.106,970.500 599.023 C 952.350 602.941,930.776 607.688,922.557 609.573 C 914.338 611.458,907.476 613.000,907.307 613.000 C 907.138 613.000,906.994 556.188,906.986 486.750 C 906.979 417.313,906.728 359.588,906.428 358.472 C 906.016 356.941,903.461 355.625,895.988 353.095 L 886.092 349.745 876.546 353.036 L 867.000 356.326 867.000 370.270 C 867.000 382.865,866.839 384.152,865.336 383.575 C 860.553 381.740,841.195 375.545,832.000 372.908 C 826.225 371.251,816.775 368.383,811.000 366.535 C 805.225 364.686,795.212 361.546,788.750 359.557 L 777.000 355.942 777.000 334.939 C 777.000 319.012,776.698 313.843,775.750 313.549 C 768.327 311.242,754.853 307.613,752.407 307.262 C 750.329 306.963,745.820 308.184,738.657 310.985 L 728.000 315.152 727.986 336.826 C 727.979 348.747,727.721 359.437,727.413 360.583 C 726.965 362.252,721.650 364.684,700.641 372.833 C 686.223 378.425,674.106 383.000,673.714 383.000 C 673.321 383.000,673.000 377.206,673.000 370.125 L 673.000 357.250 669.750 356.608 C 667.962 356.255,663.538 355.035,659.918 353.897 L 653.336 351.827 645.418 354.514 C 641.063 355.992,636.971 357.870,636.325 358.689 C 635.436 359.815,635.292 381.150,635.733 446.530 L 636.316 532.883 633.908 533.461 C 624.735 535.665,591.597 541.930,591.202 541.535 C 590.934 541.267,590.609 528.100,590.480 512.274 C 590.338 494.855,590.515 487.644,590.927 494.000 C 591.512 503.007,591.669 501.016,592.036 480.000 C 592.567 449.557,592.542 444.436,591.846 439.823 C 591.278 436.057,585.997 427.815,568.890 404.000 C 548.447 375.540,546.305 372.134,544.478 365.185 C 543.655 362.058,540.308 347.800,537.039 333.500 C 533.770 319.200,528.627 297.375,525.610 285.000 C 515.076 241.786,512.123 229.355,507.554 209.000 C 505.023 197.725,501.667 183.100,500.097 176.500 C 498.526 169.900,495.148 155.500,492.589 144.500 C 490.031 133.500,486.574 118.875,484.907 112.000 C 481.815 99.244,476.465 76.045,468.995 43.000 C 464.641 23.742,459.337 6.000,457.933 6.000 C 457.485 6.000,456.820 6.482,456.456 7.071 M473.868 84.500 C 477.747 100.450,485.235 131.950,490.508 154.500 C 495.781 177.050,502.075 203.825,504.495 214.000 C 506.915 224.175,510.518 239.475,512.503 248.000 C 514.488 256.525,517.900 271.150,520.086 280.500 C 522.273 289.850,524.315 298.625,524.626 300.000 C 524.936 301.375,526.742 309.025,528.640 317.000 C 530.538 324.975,534.542 342.075,537.539 355.000 C 540.536 367.925,544.790 385.437,546.993 393.915 C 550.102 405.877,554.000 425.053,554.000 428.383 C 554.000 428.605,552.305 428.407,550.233 427.941 C 545.624 426.905,504.435 419.612,493.760 417.940 C 489.503 417.274,485.623 416.227,485.138 415.614 C 484.653 415.001,484.002 409.550,483.691 403.500 C 483.380 397.450,482.445 382.375,481.614 370.000 C 480.783 357.625,479.622 335.575,479.035 321.000 C 475.555 234.607,469.925 130.348,465.967 78.976 C 464.885 64.937,464.047 51.887,464.104 49.976 L 464.208 46.500 465.512 51.000 C 466.229 53.475,469.990 68.550,473.868 84.500 M462.536 131.000 C 466.688 207.729,469.768 267.694,470.961 295.000 C 471.968 318.041,472.761 333.110,475.977 390.280 C 476.527 400.058,477.206 409.283,477.487 410.780 C 477.768 412.276,476.839 409.900,475.424 405.500 C 457.998 351.327,453.034 336.509,452.331 336.561 C 451.874 336.594,446.981 345.594,441.458 356.561 C 426.972 385.324,414.000 410.313,414.000 409.454 C 414.000 408.734,416.421 388.651,423.518 330.500 C 425.398 315.100,428.498 289.675,430.408 274.000 C 432.317 258.325,435.470 232.450,437.413 216.500 C 439.356 200.550,442.086 177.600,443.479 165.500 C 445.875 144.698,450.584 107.161,455.052 73.253 C 456.157 64.867,457.384 57.217,457.780 56.253 C 458.176 55.289,458.830 61.025,459.233 69.000 C 459.636 76.975,461.122 104.875,462.536 131.000 M474.662 289.250 C 474.385 289.938,474.158 289.375,474.158 288.000 C 474.158 286.625,474.385 286.063,474.662 286.750 C 474.940 287.438,474.940 288.563,474.662 289.250 M765.892 314.968 L 772.500 316.936 772.208 481.008 L 771.916 645.081 767.827 648.790 C 762.840 653.314,758.918 655.985,757.250 655.993 C 756.255 655.999,756.000 621.037,756.000 484.500 C 756.000 326.123,756.126 313.000,757.642 313.000 C 758.545 313.000,762.258 313.885,765.892 314.968 M458.803 368.770 C 463.670 381.338,465.269 386.080,470.437 403.263 C 471.887 408.082,473.302 412.623,473.582 413.353 C 473.963 414.347,470.665 413.977,460.415 411.876 C 452.894 410.335,446.550 408.883,446.317 408.651 C 446.085 408.418,447.018 400.189,448.391 390.364 C 449.764 380.539,451.178 368.561,451.534 363.747 C 451.889 358.932,452.561 355.229,453.027 355.517 C 453.493 355.805,456.093 361.769,458.803 368.770 M897.171 357.542 L 901.697 359.085 902.251 404.792 C 903.120 476.684,901.958 613.802,900.473 614.372 C 899.804 614.629,897.173 615.151,894.628 615.533 L 890.000 616.227 890.000 486.114 C 890.000 378.917,890.233 356.000,891.322 356.000 C 892.049 356.000,894.681 356.694,897.171 357.542 M667.250 361.153 C 668.906 362.021,669.000 371.307,669.000 534.707 L 669.000 707.343 664.482 711.671 C 661.998 714.052,659.523 716.000,658.982 716.000 C 657.849 716.000,657.606 477.889,658.665 404.707 L 659.327 358.913 662.414 359.575 C 664.111 359.939,666.288 360.649,667.250 361.153 M819.000 373.777 C 828.075 376.569,842.700 380.932,851.500 383.473 C 860.300 386.015,868.400 388.462,869.500 388.912 C 871.486 389.723,871.498 390.546,871.242 505.276 L 870.983 620.822 857.742 623.942 C 832.408 629.910,823.399 631.950,806.500 635.543 C 792.727 638.472,788.836 639.682,786.000 641.917 C 782.511 644.667,778.640 647.000,777.566 647.000 C 776.778 647.000,776.859 399.380,777.654 378.422 L 778.302 361.344 790.401 365.023 C 797.055 367.047,809.925 370.986,819.000 373.777 M575.975 422.500 C 579.747 428.000,582.690 432.643,582.516 432.817 C 582.061 433.273,566.250 430.779,565.184 430.083 C 564.267 429.484,557.000 399.600,557.000 396.428 C 557.000 395.456,559.726 398.675,563.059 403.581 C 566.391 408.486,572.203 417.000,575.975 422.500 M812.957 417.750 C 807.793 422.633,806.993 426.963,807.022 449.886 C 807.041 465.055,807.284 467.799,808.772 469.656 C 810.071 471.276,813.460 472.468,822.412 474.451 C 828.964 475.902,834.976 476.839,835.772 476.534 C 836.994 476.065,837.147 472.593,836.752 454.239 C 836.212 429.136,835.403 425.656,828.441 418.492 C 822.625 412.508,818.699 412.320,812.957 417.750 M709.331 417.986 C 714.472 422.500,715.121 426.403,714.790 450.813 L 714.500 472.126 702.500 476.053 C 695.900 478.213,690.358 479.985,690.184 479.990 C 690.009 479.996,690.009 469.538,690.184 456.750 C 690.498 433.677,690.521 433.454,693.304 427.500 C 696.435 420.800,701.473 415.000,704.161 415.000 C 705.134 415.000,707.461 416.344,709.331 417.986 M485.011 424.550 C 503.980 428.153,523.775 431.824,529.000 432.708 C 534.225 433.592,549.300 436.421,562.500 438.994 L 586.500 443.673 586.760 491.815 L 587.019 539.957 584.760 540.452 C 583.517 540.724,571.476 542.747,558.002 544.947 L 533.504 548.948 518.468 564.224 C 510.199 572.626,490.735 592.630,475.216 608.677 L 447.000 637.854 447.000 527.927 C 447.000 423.632,447.090 418.000,448.761 418.000 C 449.730 418.000,466.043 420.948,485.011 424.550 M825.947 421.947 C 831.030 427.030,831.481 429.271,831.821 451.143 L 832.142 471.786 825.321 470.286 C 821.570 469.460,817.150 468.478,815.500 468.103 L 812.500 467.420 812.198 449.460 C 811.875 430.321,812.600 425.382,816.228 422.002 C 818.958 419.459,823.433 419.433,825.947 421.947 M515.729 425.604 C 515.397 425.936,514.534 425.972,513.813 425.683 C 513.015 425.364,513.252 425.127,514.417 425.079 C 515.471 425.036,516.061 425.272,515.729 425.604 M527.729 427.604 C 527.397 427.936,526.534 427.972,525.813 427.683 C 525.015 427.364,525.252 427.127,526.417 427.079 C 527.471 427.036,528.061 427.272,527.729 427.604 M532.729 428.604 C 532.397 428.936,531.534 428.972,530.813 428.683 C 530.015 428.364,530.252 428.127,531.417 428.079 C 532.471 428.036,533.061 428.272,532.729 428.604 M551.729 432.604 C 551.397 432.936,550.534 432.972,549.813 432.683 C 549.015 432.364,549.252 432.127,550.417 432.079 C 551.471 432.036,552.061 432.272,551.729 432.604 M556.729 433.604 C 556.397 433.936,555.534 433.972,554.813 433.683 C 554.015 433.364,554.252 433.127,555.417 433.079 C 556.471 433.036,557.061 433.272,556.729 433.604 M564.000 435.000 C 565.980 435.634,566.084 435.801,564.500 435.801 C 563.400 435.801,561.375 435.440,560.000 435.000 C 558.020 434.366,557.916 434.199,559.500 434.199 C 560.600 434.199,562.625 434.560,564.000 435.000 M570.250 436.662 C 569.563 436.940,568.438 436.940,567.750 436.662 C 567.063 436.385,567.625 436.158,569.000 436.158 C 570.375 436.158,570.938 436.385,570.250 436.662 M583.308 438.982 C 583.752 439.385,581.518 439.308,578.344 438.810 C 575.169 438.312,572.339 437.672,572.054 437.387 C 571.244 436.577,582.401 438.158,583.308 438.982 M509.873 449.005 C 505.059 451.549,499.298 460.400,496.271 469.902 C 489.395 491.489,494.232 516.391,507.968 530.128 C 514.386 536.546,518.738 537.947,526.137 535.976 C 531.574 534.528,538.614 527.543,542.329 519.912 C 550.548 503.027,549.364 475.625,539.756 460.406 C 536.804 455.729,529.883 449.286,526.383 447.955 C 522.237 446.379,513.831 446.913,509.873 449.005 M397.177 450.778 C 403.003 454.621,406.922 462.171,409.455 474.436 C 412.270 488.065,410.923 504.111,405.820 517.752 C 403.334 524.395,396.421 532.000,392.868 532.000 C 384.729 532.000,376.000 510.536,376.000 490.523 C 376.000 473.264,381.655 456.046,388.898 451.250 C 392.983 448.545,393.726 448.503,397.177 450.778 M590.707 466.238 C 590.468 467.482,590.263 466.700,590.252 464.500 C 590.241 462.300,590.437 461.282,590.687 462.238 C 590.937 463.194,590.946 464.994,590.707 466.238 M591.286 519.500 C 591.294 522.250,591.488 523.256,591.718 521.736 C 591.947 520.216,591.941 517.966,591.704 516.736 C 591.467 515.506,591.279 516.750,591.286 519.500 M815.655 537.459 C 804.971 541.268,798.352 555.583,799.221 573.000 C 799.555 579.692,800.215 582.609,802.321 586.713 C 807.602 597.003,813.839 602.000,821.403 602.000 C 826.387 602.000,829.388 600.606,834.455 595.934 C 841.127 589.785,843.330 583.292,843.424 569.500 C 843.494 559.400,843.264 557.989,840.615 552.253 C 837.633 545.796,831.083 538.743,826.427 536.972 C 823.031 535.681,820.294 535.805,815.655 537.459 M635.393 541.750 C 634.869 544.566,632.535 547.867,626.026 555.000 C 621.257 560.225,610.439 572.600,601.985 582.500 C 593.531 592.400,581.535 606.177,575.328 613.116 C 565.542 624.055,563.541 625.815,560.271 626.361 C 558.197 626.708,534.450 630.367,507.500 634.493 C 480.550 638.620,457.513 642.154,456.306 642.349 C 453.741 642.761,469.741 625.406,505.952 588.499 C 540.917 552.861,536.348 556.295,552.700 553.365 C 565.482 551.074,616.712 541.269,627.000 539.144 C 635.697 537.347,636.184 537.499,635.393 541.750 M831.123 545.934 C 834.755 549.702,836.366 552.444,837.939 557.539 C 840.275 565.101,840.469 569.097,838.909 577.535 C 837.562 584.820,835.208 589.509,830.744 593.795 C 824.750 599.550,818.449 599.716,812.755 594.270 C 804.095 585.985,800.958 572.304,804.544 558.460 C 807.473 547.155,813.593 541.011,821.934 541.004 C 825.939 541.000,826.827 541.477,831.123 545.934 M710.370 550.317 C 712.913 552.860,715.409 556.663,716.442 559.567 C 718.729 565.997,719.591 581.835,718.057 589.224 C 715.603 601.048,707.932 612.000,702.106 612.000 C 688.914 612.000,680.271 587.185,685.820 565.242 C 689.054 552.451,694.556 546.020,702.276 546.007 C 705.399 546.001,706.800 546.747,710.370 550.317 M244.500 552.993 C 255.500 554.117,270.350 555.673,277.500 556.451 C 284.650 557.229,299.500 558.823,310.500 559.995 C 336.522 562.765,388.900 568.906,391.620 569.506 C 393.679 569.959,402.182 583.806,416.486 610.000 C 424.171 624.072,434.038 641.321,435.236 642.774 C 435.813 643.475,436.108 644.225,435.892 644.442 C 435.508 644.825,413.230 644.227,345.000 642.003 C 285.531 640.064,280.260 639.705,277.989 637.434 C 276.895 636.340,271.388 628.603,265.750 620.241 C 260.113 611.879,247.812 593.664,238.416 579.763 C 229.019 565.861,220.767 553.433,220.078 552.145 C 218.879 549.905,218.948 549.827,221.662 550.376 C 223.223 550.692,233.500 551.870,244.500 552.993 M538.500 553.000 C 535.769 554.174,535.000 554.174,535.000 553.000 C 535.000 552.450,536.237 552.032,537.750 552.070 C 540.187 552.133,540.272 552.238,538.500 553.000 M635.858 605.425 L 636.215 654.850 632.112 656.943 C 626.438 659.837,611.681 671.101,604.691 677.873 C 601.215 681.239,596.958 686.915,594.092 692.000 L 589.302 700.500 588.665 767.744 L 588.028 834.988 583.883 843.244 C 581.603 847.785,578.335 853.525,576.619 856.000 L 573.500 860.500 573.500 912.500 L 573.500 964.500 570.664 964.825 L 567.829 965.149 568.371 846.325 C 568.669 780.971,569.216 705.450,569.587 678.500 L 570.262 629.500 576.387 623.000 C 583.224 615.746,604.044 591.890,616.934 576.542 C 621.573 571.019,627.198 564.553,629.434 562.173 C 631.670 559.794,633.650 557.431,633.833 556.923 C 635.180 553.195,635.543 561.894,635.858 605.425 M381.269 564.656 C 380.592 564.930,379.242 564.947,378.269 564.693 C 377.296 564.439,377.850 564.215,379.500 564.195 C 381.150 564.175,381.946 564.382,381.269 564.656 M390.264 565.704 C 389.034 565.941,386.784 565.947,385.264 565.718 C 383.744 565.488,384.750 565.294,387.500 565.286 C 390.250 565.279,391.494 565.467,390.264 565.704 M1356.998 600.500 C 1375.337 623.482,1375.037 623.002,1370.752 622.473 C 1352.283 620.191,1350.999 619.854,1350.373 617.126 C 1349.085 611.516,1340.783 581.453,1340.260 580.503 C 1338.913 578.061,1342.742 582.635,1356.998 600.500 M1227.000 582.355 C 1227.000 582.695,1216.857 589.886,1214.250 591.395 C 1213.563 591.792,1213.000 591.876,1213.000 591.580 C 1213.000 591.109,1226.063 582.000,1226.739 582.000 C 1226.883 582.000,1227.000 582.160,1227.000 582.355 M1185.000 609.496 C 1185.000 610.149,1164.898 623.220,1153.500 629.978 C 1142.576 636.455,1143.000 636.226,1143.000 635.645 C 1143.000 635.385,1145.138 633.841,1147.750 632.214 C 1150.362 630.588,1159.700 624.705,1168.500 619.142 C 1185.213 608.576,1185.000 608.700,1185.000 609.496 M1309.750 621.662 C 1310.438 621.940,1311.563 621.940,1312.250 621.662 C 1312.938 621.385,1312.375 621.158,1311.000 621.158 C 1309.625 621.158,1309.063 621.385,1309.750 621.662 M1365.187 624.642 L 1374.160 626.283 1373.865 634.820 C 1373.656 640.853,1373.926 643.475,1374.785 643.762 C 1375.707 644.069,1376.000 652.574,1376.000 679.083 C 1376.000 711.668,1375.883 714.000,1374.250 714.006 C 1373.287 714.009,1367.916 713.481,1362.313 712.833 L 1352.125 711.655 1351.813 702.042 L 1351.500 692.430 1359.000 693.192 C 1363.125 693.610,1367.400 694.104,1368.500 694.289 C 1370.452 694.617,1370.509 693.974,1370.856 667.451 L 1371.212 640.277 1363.075 639.012 C 1355.826 637.884,1354.742 637.923,1353.140 639.373 C 1352.152 640.268,1351.138 641.000,1350.889 641.000 C 1350.221 641.000,1349.992 630.021,1350.582 626.250 C 1351.193 622.345,1352.093 622.246,1365.187 624.642 M175.000 625.533 C 175.000 625.826,172.218 632.464,168.819 640.283 L 162.638 654.500 162.897 679.039 L 163.156 703.579 136.328 706.805 C 121.573 708.579,102.975 710.739,95.000 711.604 C 87.025 712.469,78.604 713.526,76.288 713.953 C 72.586 714.634,72.182 714.532,72.958 713.114 C 74.286 710.685,87.426 694.501,94.972 686.000 C 100.125 680.196,131.771 642.404,139.490 632.837 C 141.593 630.230,175.000 623.359,175.000 625.533 M557.729 630.604 C 557.397 630.936,556.534 630.972,555.813 630.683 C 555.015 630.364,555.252 630.127,556.417 630.079 C 557.471 630.036,558.061 630.272,557.729 630.604 M552.269 631.656 C 551.592 631.930,550.242 631.947,549.269 631.693 C 548.296 631.439,548.850 631.215,550.500 631.195 C 552.150 631.175,552.946 631.382,552.269 631.656 M568.728 641.750 C 568.513 643.813,568.336 642.125,568.336 638.000 C 568.336 633.875,568.513 632.188,568.728 634.250 C 568.944 636.313,568.944 639.688,568.728 641.750 M1347.144 645.500 C 1348.176 659.925,1348.112 688.000,1347.047 688.000 C 1346.523 688.000,1344.948 687.478,1343.547 686.839 L 1341.000 685.679 1341.000 661.506 C 1341.000 648.211,1341.319 637.014,1341.709 636.624 C 1342.099 636.235,1343.336 636.047,1344.459 636.208 C 1346.284 636.469,1346.568 637.452,1347.144 645.500 M1134.433 642.314 C 1134.122 643.124,1130.397 644.120,1124.714 644.912 C 1119.647 645.619,1105.375 648.147,1093.000 650.529 C 1080.625 652.912,1062.400 656.264,1052.500 657.978 C 1042.600 659.692,1023.398 663.315,1009.830 666.028 C 996.261 668.742,981.411 671.629,976.830 672.444 C 969.045 673.830,956.430 676.169,922.619 682.498 C 914.984 683.927,908.017 684.957,907.138 684.788 C 906.258 684.619,915.879 682.520,928.519 680.124 C 941.158 677.728,962.750 673.594,976.500 670.937 C 990.250 668.279,1024.000 661.840,1051.500 656.628 C 1079.000 651.415,1108.475 645.812,1117.000 644.175 C 1135.539 640.616,1135.065 640.666,1134.433 642.314 M1369.970 658.250 C 1369.953 667.737,1369.608 674.825,1369.202 674.000 C 1368.446 672.461,1368.797 641.000,1369.570 641.000 C 1369.807 641.000,1369.986 648.763,1369.970 658.250 M1361.920 642.929 C 1363.703 644.058,1365.377 665.911,1364.051 670.750 C 1363.285 673.549,1363.413 674.000,1364.974 674.000 C 1366.640 674.000,1368.000 675.835,1368.000 678.082 C 1368.000 679.889,1364.862 678.954,1362.548 676.457 C 1360.727 674.492,1359.601 674.062,1357.595 674.565 L 1355.000 675.217 1355.000 658.608 L 1355.000 642.000 1357.750 642.015 C 1359.263 642.024,1361.139 642.435,1361.920 642.929 M441.500 645.000 C 441.840 645.550,441.390 646.000,440.500 646.000 C 439.610 646.000,439.160 645.550,439.500 645.000 C 439.840 644.450,440.290 644.000,440.500 644.000 C 440.710 644.000,441.160 644.450,441.500 645.000 M322.729 645.604 C 322.397 645.936,321.534 645.972,320.813 645.683 C 320.015 645.364,320.252 645.127,321.417 645.079 C 322.471 645.036,323.061 645.272,322.729 645.604 M325.000 648.524 C 352.959 649.244,421.205 651.840,431.602 652.579 L 439.704 653.155 439.918 804.042 L 440.132 954.929 437.816 955.424 C 435.392 955.943,400.669 957.877,346.500 960.510 C 328.900 961.365,307.300 962.500,298.500 963.031 C 289.700 963.562,281.924 963.997,281.219 963.998 C 280.186 964.000,279.969 944.460,280.096 862.750 C 280.183 807.063,280.480 735.687,280.757 704.138 L 281.259 646.776 292.380 647.373 C 298.496 647.702,313.175 648.219,325.000 648.524 M750.879 663.959 C 746.362 668.043,745.000 668.742,745.000 666.978 C 745.000 666.103,753.592 660.000,754.824 660.000 C 755.062 660.000,753.287 661.782,750.879 663.959 M1365.750 682.549 C 1366.508 682.785,1367.000 684.714,1367.000 687.452 L 1367.000 691.967 1361.250 691.522 C 1358.088 691.277,1355.162 691.060,1354.750 691.038 C 1354.338 691.017,1354.000 688.735,1354.000 685.966 L 1354.000 680.931 1359.250 681.546 C 1362.138 681.885,1365.063 682.336,1365.750 682.549 M1352.689 688.750 C 1352.438 689.712,1352.232 688.925,1352.232 687.000 C 1352.232 685.075,1352.438 684.288,1352.689 685.250 C 1352.941 686.212,1352.941 687.788,1352.689 688.750 M1368.662 687.250 C 1368.385 687.938,1368.158 687.375,1368.158 686.000 C 1368.158 684.625,1368.385 684.063,1368.662 684.750 C 1368.940 685.438,1368.940 686.563,1368.662 687.250 M904.729 685.604 C 904.397 685.936,903.534 685.972,902.813 685.683 C 902.015 685.364,902.252 685.127,903.417 685.079 C 904.471 685.036,905.061 685.272,904.729 685.604 M899.000 687.000 C 897.625 687.440,895.375 687.801,894.000 687.801 L 891.500 687.801 894.000 687.000 C 895.375 686.560,897.625 686.199,899.000 686.199 L 901.500 686.199 899.000 687.000 M872.000 692.000 C 870.625 692.440,868.600 692.801,867.500 692.801 C 865.916 692.801,866.020 692.634,868.000 692.000 C 869.375 691.560,871.400 691.199,872.500 691.199 C 874.084 691.199,873.980 691.366,872.000 692.000 M822.729 701.604 C 822.397 701.936,821.534 701.972,820.813 701.683 C 820.015 701.364,820.252 701.127,821.417 701.079 C 822.471 701.036,823.061 701.272,822.729 701.604 M818.250 702.662 C 817.563 702.940,816.438 702.940,815.750 702.662 C 815.063 702.385,815.625 702.158,817.000 702.158 C 818.375 702.158,818.938 702.385,818.250 702.662 M1058.000 706.737 C 1062.838 712.234,1068.697 724.035,1072.329 735.602 C 1077.756 752.881,1078.000 757.648,1078.000 846.358 L 1078.000 927.959 1052.940 927.405 L 1027.881 926.850 1027.428 855.175 C 1026.883 769.028,1027.476 759.869,1035.139 736.000 C 1039.743 721.660,1049.774 702.000,1052.487 702.000 C 1053.226 702.000,1055.706 704.132,1058.000 706.737 M361.500 706.397 C 352.126 710.517,341.611 722.617,334.503 737.461 C 326.238 754.723,326.700 749.399,326.262 832.411 L 325.872 906.322 362.637 905.626 C 382.858 905.244,399.531 904.803,399.687 904.646 C 399.844 904.489,400.010 874.017,400.055 836.931 C 400.128 777.778,399.935 768.518,398.479 761.500 C 393.752 738.708,381.528 716.182,369.284 707.697 C 364.808 704.595,365.382 704.691,361.500 706.397 M796.729 706.604 C 796.397 706.936,795.534 706.972,794.813 706.683 C 794.015 706.364,794.252 706.127,795.417 706.079 C 796.471 706.036,797.061 706.272,796.729 706.604 M792.269 707.656 C 791.592 707.930,790.242 707.947,789.269 707.693 C 788.296 707.439,788.850 707.215,790.500 707.195 C 792.150 707.175,792.946 707.382,792.269 707.656 M973.290 725.750 C 980.151 736.172,986.765 755.057,988.964 770.500 C 989.554 774.642,989.968 808.222,989.980 852.750 L 990.000 928.000 980.658 928.000 C 975.520 928.000,965.283 927.710,957.908 927.357 L 944.500 926.713 944.500 854.107 C 944.500 782.876,944.543 781.273,946.764 769.500 C 949.399 755.534,951.842 747.654,957.047 736.323 C 961.004 727.708,966.496 719.000,967.971 719.000 C 968.453 719.000,970.846 722.038,973.290 725.750 M1316.494 748.991 C 1316.724 749.362,1315.636 749.667,1314.076 749.667 C 1309.880 749.667,1300.898 757.721,1300.487 761.852 C 1300.396 762.758,1299.836 765.300,1299.242 767.500 C 1297.897 772.480,1295.783 791.116,1296.483 791.817 C 1297.553 792.887,1298.192 790.973,1298.724 785.104 C 1299.026 781.775,1299.628 779.270,1300.062 779.538 C 1300.871 780.038,1300.812 781.137,1299.419 791.500 C 1298.976 794.800,1298.541 802.675,1298.454 809.000 C 1298.367 815.325,1297.937 823.612,1297.498 827.415 C 1296.782 833.618,1296.869 834.264,1298.350 833.696 C 1299.257 833.348,1300.000 833.499,1300.000 834.031 C 1300.000 834.564,1299.662 834.999,1299.250 834.998 C 1298.838 834.996,1298.644 838.769,1298.820 843.381 L 1299.140 851.767 1303.170 852.411 C 1306.574 852.955,1307.009 853.284,1305.977 854.528 C 1304.915 855.808,1306.071 856.000,1314.819 856.000 C 1323.969 856.000,1328.018 855.034,1324.756 853.630 C 1324.065 853.332,1330.169 853.252,1338.321 853.451 C 1351.851 853.781,1353.071 853.669,1352.321 852.156 C 1351.282 850.059,1351.078 774.000,1352.112 774.000 C 1352.931 774.000,1353.813 779.382,1354.325 787.500 C 1354.527 790.716,1354.704 789.621,1354.820 784.432 C 1354.925 779.712,1354.390 774.311,1353.532 771.419 C 1352.112 766.637,1347.782 759.552,1346.849 760.484 C 1346.182 761.151,1336.456 752.881,1336.742 751.890 C 1337.147 750.481,1326.638 747.941,1321.199 748.133 C 1318.382 748.233,1316.264 748.619,1316.494 748.991 M1317.823 756.750 C 1313.879 761.002,1312.615 765.763,1314.618 768.820 C 1316.100 771.082,1316.337 771.150,1317.223 769.566 C 1317.759 768.607,1318.029 766.376,1317.823 764.608 C 1317.421 761.164,1320.011 757.271,1321.919 758.450 C 1322.564 758.848,1322.744 758.497,1322.382 757.552 C 1321.135 754.303,1323.054 756.186,1325.123 760.242 C 1326.694 763.321,1326.855 764.124,1325.709 763.173 C 1324.294 761.999,1324.189 762.427,1324.691 767.295 C 1325.054 770.811,1324.855 772.972,1324.126 773.422 C 1323.451 773.839,1322.994 773.393,1322.985 772.309 C 1322.976 771.314,1322.491 769.825,1321.906 769.000 C 1321.077 767.830,1320.942 768.113,1321.290 770.285 C 1321.593 772.177,1321.217 773.337,1320.118 773.900 C 1317.957 775.008,1316.278 774.324,1311.397 770.345 C 1309.140 768.505,1306.778 767.000,1306.147 767.000 C 1301.259 767.000,1314.424 754.145,1319.437 754.023 C 1319.952 754.010,1319.226 755.237,1317.823 756.750 M1331.282 755.344 C 1334.422 756.656,1334.498 756.836,1334.424 762.796 C 1334.373 766.915,1334.698 768.687,1335.424 768.240 C 1336.016 767.876,1335.702 768.797,1334.727 770.289 C 1332.848 773.162,1332.911 773.355,1335.418 772.393 C 1336.348 772.036,1337.000 770.613,1337.000 768.938 L 1337.000 766.091 1339.590 768.681 C 1342.294 771.385,1342.257 771.491,1337.712 774.089 C 1336.729 774.651,1335.009 774.820,1333.890 774.465 C 1332.166 773.918,1331.949 773.259,1332.472 770.160 C 1332.897 767.642,1332.617 765.876,1331.576 764.500 C 1330.130 762.588,1330.058 762.653,1329.932 766.000 C 1329.729 771.407,1328.626 774.291,1326.649 774.581 C 1325.301 774.779,1325.029 774.423,1325.574 773.173 C 1327.275 769.270,1328.613 760.260,1327.939 757.250 C 1327.103 753.520,1327.024 753.565,1331.282 755.344 M1332.079 758.583 C 1332.127 759.748,1332.364 759.985,1332.683 759.188 C 1332.972 758.466,1332.936 757.603,1332.604 757.271 C 1332.272 756.939,1332.036 757.529,1332.079 758.583 M1343.144 762.155 C 1345.254 764.138,1346.036 765.469,1345.250 765.738 C 1344.563 765.974,1344.000 766.804,1344.000 767.583 C 1344.000 769.114,1346.073 769.094,1347.181 767.552 C 1347.556 767.031,1348.417 767.820,1349.094 769.306 C 1350.350 772.065,1349.527 774.470,1348.110 772.179 C 1347.681 771.484,1346.018 770.546,1344.415 770.094 C 1342.812 769.643,1341.608 768.775,1341.740 768.166 C 1342.061 766.685,1337.417 759.916,1336.624 760.710 C 1336.281 761.053,1336.000 760.808,1336.000 760.167 C 1336.000 757.952,1339.799 759.009,1343.144 762.155 M1298.459 764.067 C 1298.096 764.653,1298.014 765.348,1298.276 765.610 C 1298.538 765.872,1299.019 765.392,1299.345 764.543 C 1300.021 762.781,1299.445 762.471,1298.459 764.067 M1316.500 767.000 C 1316.840 767.550,1316.641 768.000,1316.059 768.000 C 1315.477 768.000,1315.000 767.550,1315.000 767.000 C 1315.000 766.450,1315.198 766.000,1315.441 766.000 C 1315.684 766.000,1316.160 766.450,1316.500 767.000 M1307.393 772.582 C 1308.251 774.817,1308.183 775.000,1306.500 775.000 C 1305.667 775.000,1305.000 774.111,1305.000 773.000 C 1305.000 770.616,1306.536 770.347,1307.393 772.582 M158.250 772.723 C 156.463 772.945,153.537 772.945,151.750 772.723 C 149.963 772.502,151.425 772.320,155.000 772.320 C 158.575 772.320,160.037 772.502,158.250 772.723 M144.728 773.730 C 142.653 773.946,139.503 773.943,137.728 773.722 C 135.952 773.501,137.650 773.324,141.500 773.328 C 145.350 773.333,146.802 773.513,144.728 773.730 M1252.657 778.322 C 1245.702 790.189,1240.081 798.476,1239.131 798.262 C 1238.548 798.131,1238.283 798.581,1238.540 799.262 C 1239.196 800.997,1230.515 813.919,1226.407 817.323 C 1224.533 818.875,1223.000 820.633,1223.000 821.228 C 1223.000 821.823,1223.965 821.453,1225.146 820.405 C 1227.263 818.525,1227.277 818.526,1226.227 820.500 C 1225.642 821.600,1224.259 823.458,1223.155 824.630 C 1222.049 825.802,1220.663 829.373,1220.071 832.572 C 1218.884 838.992,1218.000 839.962,1213.312 839.985 L 1210.124 840.000 1214.110 833.439 C 1216.302 829.831,1218.542 825.704,1219.088 824.269 C 1220.537 820.458,1227.035 811.904,1228.019 812.512 C 1228.483 812.798,1229.187 812.506,1229.585 811.862 C 1230.037 811.131,1229.876 810.959,1229.155 811.405 C 1227.054 812.703,1227.954 809.929,1231.173 805.180 C 1235.239 799.182,1239.682 794.015,1240.269 794.602 C 1240.687 795.021,1244.654 789.195,1251.404 778.250 C 1254.844 772.672,1255.932 772.734,1252.657 778.322 M1349.000 777.035 C 1349.000 777.566,1348.502 778.000,1347.893 778.000 C 1347.227 778.000,1347.077 778.697,1347.517 779.750 C 1347.919 780.712,1348.447 784.087,1348.690 787.250 C 1349.106 792.665,1349.002 793.000,1346.899 793.000 C 1345.671 793.000,1344.968 793.301,1345.336 793.669 C 1345.703 794.037,1345.312 795.102,1344.467 796.037 C 1343.056 797.596,1343.125 797.699,1345.298 797.283 C 1347.829 796.799,1348.347 798.179,1347.391 802.855 C 1347.013 804.704,1346.436 805.090,1344.705 804.655 C 1342.728 804.157,1342.676 804.231,1344.202 805.375 C 1346.759 807.291,1345.397 810.971,1341.870 811.676 C 1340.292 811.992,1339.000 812.644,1339.000 813.125 C 1339.000 813.606,1337.902 814.000,1336.559 814.000 C 1335.216 814.000,1333.866 814.408,1333.558 814.906 C 1333.250 815.404,1332.098 815.577,1330.999 815.289 C 1328.764 814.705,1328.317 810.927,1329.969 806.582 C 1330.716 804.617,1331.875 803.884,1335.031 803.379 C 1337.634 802.963,1338.776 802.376,1338.168 801.768 C 1337.643 801.243,1336.377 800.975,1335.356 801.174 C 1333.587 801.520,1329.000 798.444,1329.000 796.913 C 1329.000 796.514,1329.895 796.421,1330.989 796.707 C 1332.083 796.993,1332.710 797.659,1332.384 798.188 C 1332.058 798.716,1332.752 798.552,1333.927 797.824 C 1336.056 796.505,1336.054 796.498,1333.485 796.000 C 1332.043 795.720,1330.047 794.138,1328.956 792.409 L 1327.004 789.317 1330.959 785.659 C 1334.911 782.002,1337.347 781.135,1338.487 782.979 C 1339.166 784.078,1337.164 791.822,1335.702 793.750 C 1335.033 794.633,1335.262 795.000,1336.485 795.000 C 1337.611 795.000,1338.013 795.523,1337.638 796.500 C 1337.322 797.325,1337.499 798.000,1338.031 798.000 C 1338.564 798.000,1339.000 797.550,1339.000 797.000 C 1339.000 796.450,1339.480 796.000,1340.067 796.000 C 1340.684 796.000,1340.884 796.951,1340.541 798.250 C 1340.214 799.487,1340.767 798.925,1341.769 797.000 C 1343.730 793.235,1342.873 791.462,1339.870 793.070 C 1337.456 794.362,1336.971 794.238,1337.638 792.500 C 1337.955 791.675,1338.953 790.968,1339.857 790.930 C 1341.324 790.867,1341.317 790.787,1339.790 790.180 C 1338.216 789.554,1338.248 789.235,1340.196 786.159 C 1341.953 783.385,1342.798 782.890,1345.183 783.240 C 1346.970 783.502,1347.902 783.253,1347.652 782.581 C 1347.431 781.986,1346.786 781.599,1346.218 781.719 C 1345.089 781.959,1345.129 780.184,1346.294 778.319 C 1346.700 777.670,1346.575 776.856,1346.016 776.510 C 1344.048 775.294,1344.953 773.905,1347.000 775.000 C 1348.100 775.589,1349.000 776.505,1349.000 777.035 M162.370 778.250 C 162.701 779.487,162.979 788.449,162.986 798.165 L 163.000 815.829 155.750 816.378 C 151.762 816.681,125.550 817.210,97.500 817.555 C 69.450 817.901,40.698 818.352,33.606 818.559 L 20.712 818.935 23.106 816.377 C 24.423 814.970,30.675 809.472,36.999 804.159 C 43.324 798.847,52.049 791.455,56.387 787.734 C 60.726 784.013,65.226 780.789,66.388 780.568 C 67.550 780.348,84.250 779.425,103.500 778.517 C 122.750 777.608,139.400 776.732,140.500 776.569 C 141.600 776.406,146.835 776.211,152.133 776.136 C 161.332 776.006,161.794 776.101,162.370 778.250 M79.750 777.716 C 78.237 777.945,75.763 777.945,74.250 777.716 C 72.737 777.487,73.975 777.300,77.000 777.300 C 80.025 777.300,81.263 777.487,79.750 777.716 M692.000 778.458 C 708.225 779.240,730.363 780.198,741.196 780.587 L 760.892 781.293 763.808 784.397 C 765.411 786.103,776.054 798.750,787.459 812.500 C 798.863 826.250,810.850 840.568,814.097 844.317 C 817.344 848.067,820.000 851.442,820.000 851.817 C 820.000 852.551,699.882 852.240,696.431 851.498 C 695.293 851.253,692.143 848.254,689.431 844.833 C 671.061 821.663,643.961 786.819,638.128 778.870 C 636.807 777.069,637.231 777.001,649.628 777.017 C 656.708 777.027,675.775 777.675,692.000 778.458 M1314.000 777.383 C 1314.000 777.594,1313.099 778.002,1311.999 778.290 C 1310.898 778.578,1310.249 778.405,1310.558 777.907 C 1311.096 777.036,1314.000 776.594,1314.000 777.383 M1318.675 780.658 C 1318.313 781.020,1318.426 781.809,1318.926 782.411 C 1319.976 783.676,1317.712 793.437,1315.849 795.681 C 1314.713 797.051,1309.616 800.064,1308.510 800.020 C 1308.230 800.009,1307.576 800.000,1307.057 800.000 C 1306.539 800.000,1305.962 801.913,1305.774 804.250 C 1305.586 806.587,1305.373 803.628,1305.300 797.673 C 1305.168 786.934,1305.191 786.819,1308.168 783.673 C 1309.819 781.928,1310.882 781.060,1310.530 781.743 C 1309.670 783.415,1315.027 783.022,1316.821 781.281 C 1317.548 780.577,1318.411 780.000,1318.738 780.000 C 1319.065 780.000,1319.037 780.296,1318.675 780.658 M1332.000 780.556 C 1332.000 780.697,1329.739 782.437,1326.975 784.423 C 1321.753 788.174,1321.586 788.129,1320.715 782.724 L 1320.267 779.947 1326.134 780.123 C 1329.360 780.220,1332.000 780.415,1332.000 780.556 M1308.000 789.547 C 1308.000 790.831,1308.408 792.134,1308.906 792.442 C 1309.404 792.750,1309.577 793.902,1309.289 795.001 C 1309.002 796.100,1309.201 797.000,1309.731 797.000 C 1310.262 797.000,1310.733 795.678,1310.779 794.063 C 1310.825 792.447,1311.299 790.309,1311.832 789.313 C 1312.638 787.807,1312.395 787.476,1310.401 787.356 C 1308.511 787.242,1308.000 787.708,1308.000 789.547 M1321.667 790.456 C 1321.667 791.257,1321.253 791.656,1320.747 791.344 C 1320.241 791.031,1319.965 791.838,1320.133 793.138 C 1320.495 795.940,1319.401 798.000,1317.549 798.000 C 1316.506 798.000,1316.579 797.291,1317.883 794.750 C 1320.963 788.746,1321.667 787.948,1321.667 790.456 M1325.772 794.214 C 1326.545 796.035,1326.588 797.136,1325.904 797.559 C 1325.317 797.922,1325.165 799.533,1325.547 801.345 C 1326.006 803.526,1325.888 804.191,1325.166 803.500 C 1324.591 802.950,1323.850 799.579,1323.519 796.009 C 1322.920 789.539,1323.569 789.023,1325.772 794.214 M1322.512 800.821 C 1321.718 801.616,1319.998 799.812,1320.609 798.824 C 1321.024 798.152,1321.539 798.255,1322.071 799.114 C 1322.522 799.845,1322.721 800.613,1322.512 800.821 M1340.000 803.000 C 1340.000 803.550,1340.450 804.000,1341.000 804.000 C 1341.550 804.000,1342.000 803.550,1342.000 803.000 C 1342.000 802.450,1341.550 802.000,1341.000 802.000 C 1340.450 802.000,1340.000 802.450,1340.000 803.000 M1321.535 804.056 C 1322.149 805.050,1323.909 816.000,1323.455 816.000 C 1323.339 816.000,1321.614 815.319,1319.622 814.487 C 1316.158 813.039,1316.000 813.061,1316.000 814.987 C 1316.000 816.094,1316.477 817.000,1317.059 817.000 C 1317.641 817.000,1317.864 817.412,1317.553 817.915 C 1317.242 818.418,1317.553 819.057,1318.244 819.336 C 1319.178 819.712,1319.189 819.862,1318.289 819.921 C 1317.623 819.964,1316.160 819.015,1315.039 817.811 L 1313.000 815.623 1313.000 817.811 C 1313.000 819.975,1311.478 820.863,1310.833 819.076 C 1310.650 818.567,1309.472 818.990,1308.215 820.014 C 1306.465 821.441,1306.084 822.485,1306.585 824.482 C 1307.205 826.954,1309.792 827.540,1309.236 825.082 C 1309.037 824.205,1309.493 824.193,1311.064 825.034 C 1313.361 826.263,1316.000 825.691,1316.000 823.964 C 1316.000 823.320,1315.172 823.128,1314.000 823.500 C 1312.853 823.864,1312.000 823.680,1312.000 823.067 C 1312.000 821.606,1318.314 821.714,1319.800 823.200 C 1321.249 824.649,1321.407 830.000,1320.000 830.000 C 1319.442 830.000,1319.000 832.718,1319.000 836.153 L 1319.000 842.306 1317.000 840.000 C 1315.900 838.732,1315.000 836.381,1315.000 834.776 C 1315.000 832.181,1314.833 832.024,1313.500 833.357 C 1311.827 835.031,1311.439 837.465,1313.000 836.500 C 1313.550 836.160,1313.988 836.471,1313.972 837.191 C 1313.957 837.911,1312.395 839.625,1310.500 841.000 C 1306.058 844.223,1305.701 846.723,1310.000 844.500 C 1311.650 843.647,1313.000 842.484,1313.000 841.915 C 1313.000 839.967,1314.778 841.980,1315.461 844.701 C 1316.321 848.127,1314.057 850.000,1309.059 849.999 L 1305.500 849.998 1305.281 836.749 C 1305.015 820.620,1306.301 810.791,1309.212 806.703 C 1311.176 803.944,1311.427 803.848,1312.111 805.591 C 1312.523 806.641,1312.943 809.300,1313.046 811.500 C 1313.148 813.700,1313.438 814.712,1313.689 813.750 C 1313.941 812.788,1314.486 812.000,1314.900 812.000 C 1315.315 812.000,1315.455 810.646,1315.212 808.991 C 1314.969 807.336,1315.327 805.311,1316.008 804.491 C 1317.440 802.764,1320.584 802.517,1321.535 804.056 M1328.000 808.441 C 1328.000 808.684,1327.550 809.160,1327.000 809.500 C 1326.450 809.840,1326.000 809.641,1326.000 809.059 C 1326.000 808.477,1326.450 808.000,1327.000 808.000 C 1327.550 808.000,1328.000 808.198,1328.000 808.441 M1345.487 823.794 C 1346.245 827.820,1345.348 831.000,1343.456 831.000 C 1341.273 831.000,1339.201 835.011,1338.637 840.329 L 1338.124 845.158 1340.514 842.579 C 1341.829 841.161,1343.339 840.000,1343.870 840.000 C 1344.402 840.000,1345.479 839.753,1346.265 839.452 C 1347.307 839.052,1347.717 839.756,1347.783 842.056 C 1347.865 844.969,1347.766 845.067,1346.468 843.354 C 1345.204 841.685,1345.060 841.670,1345.032 843.200 C 1345.014 844.135,1345.787 845.359,1346.750 845.920 C 1348.722 847.068,1347.611 847.270,1344.261 846.373 C 1343.030 846.043,1342.271 845.370,1342.575 844.879 C 1342.879 844.387,1341.988 844.504,1340.595 845.139 C 1339.202 845.773,1338.250 846.595,1338.479 846.965 C 1339.049 847.889,1332.754 846.950,1331.448 845.916 C 1330.869 845.458,1329.404 845.343,1328.193 845.660 C 1326.981 845.977,1325.317 845.678,1324.495 844.996 C 1322.733 843.533,1322.491 837.433,1324.155 836.405 C 1324.915 835.935,1325.058 836.171,1324.574 837.095 C 1324.169 837.868,1324.978 837.263,1326.371 835.750 C 1329.227 832.649,1330.224 832.254,1329.333 834.574 C 1327.842 838.460,1333.651 847.992,1335.594 844.848 C 1335.972 844.237,1335.543 843.324,1334.640 842.819 C 1333.405 842.127,1333.000 840.423,1333.000 835.915 L 1333.000 829.929 1337.500 828.000 C 1341.211 826.409,1342.000 825.608,1342.000 823.429 C 1342.000 821.490,1341.600 820.939,1340.500 821.362 C 1339.675 821.678,1339.000 821.519,1339.000 821.009 C 1339.000 820.498,1340.320 820.175,1341.934 820.290 C 1344.398 820.466,1344.967 821.027,1345.487 823.794 M1335.729 821.604 C 1335.397 821.936,1334.534 821.972,1333.813 821.683 C 1333.015 821.364,1333.252 821.127,1334.417 821.079 C 1335.471 821.036,1336.061 821.272,1335.729 821.604 M1354.272 825.000 C 1354.272 827.475,1354.467 828.487,1354.706 827.250 C 1354.944 826.013,1354.944 823.987,1354.706 822.750 C 1354.467 821.513,1354.272 822.525,1354.272 825.000 M1330.413 823.860 C 1331.340 825.360,1328.572 829.984,1326.742 829.992 C 1325.376 829.998,1325.192 829.609,1325.919 828.250 C 1326.433 827.288,1327.098 825.712,1327.396 824.750 C 1327.971 822.891,1329.530 822.431,1330.413 823.860 M1323.183 828.217 C 1322.466 828.934,1322.000 828.993,1322.000 828.367 C 1322.000 827.032,1323.183 825.849,1323.850 826.517 C 1324.134 826.801,1323.834 827.566,1323.183 828.217 M1313.670 828.417 C 1313.371 829.197,1313.736 830.068,1314.480 830.354 C 1315.597 830.783,1317.000 829.148,1317.000 827.418 C 1317.000 826.318,1314.147 827.174,1313.670 828.417 M1310.000 831.000 C 1310.000 832.100,1310.173 833.000,1310.383 833.000 C 1310.594 833.000,1311.002 832.100,1311.290 831.000 C 1311.577 829.900,1311.405 829.000,1310.906 829.000 C 1310.408 829.000,1310.000 829.900,1310.000 831.000 M1307.272 835.000 C 1307.272 837.475,1307.467 838.487,1307.706 837.250 C 1307.944 836.013,1307.944 833.987,1307.706 832.750 C 1307.467 831.513,1307.272 832.525,1307.272 835.000 M1217.750 841.728 C 1215.688 841.944,1212.313 841.944,1210.250 841.728 C 1208.188 841.513,1209.875 841.336,1214.000 841.336 C 1218.125 841.336,1219.813 841.513,1217.750 841.728 M637.067 848.204 C 642.963 855.663,647.547 865.353,650.021 875.587 C 652.866 887.357,653.483 906.932,652.524 955.027 L 651.775 992.555 643.638 991.739 C 639.162 991.290,629.200 990.378,621.500 989.712 L 607.500 988.500 607.215 943.500 C 607.039 915.838,607.338 895.357,607.989 890.344 C 609.302 880.244,612.285 868.674,615.380 861.675 C 617.833 856.129,629.230 843.000,631.591 843.000 C 632.341 843.000,634.804 845.342,637.067 848.204 M1324.500 847.000 C 1324.840 847.550,1324.641 848.000,1324.059 848.000 C 1323.477 848.000,1323.000 847.550,1323.000 847.000 C 1323.000 846.450,1323.198 846.000,1323.441 846.000 C 1323.684 846.000,1324.160 846.450,1324.500 847.000 M1348.500 850.000 C 1348.160 850.550,1345.771 850.993,1343.191 850.985 C 1339.794 850.974,1338.914 850.702,1340.000 850.000 C 1342.011 848.700,1349.303 848.700,1348.500 850.000 M1522.750 849.728 C 1520.688 849.944,1517.313 849.944,1515.250 849.728 C 1513.188 849.513,1514.875 849.336,1519.000 849.336 C 1523.125 849.336,1524.813 849.513,1522.750 849.728 M1536.750 850.740 C 1540.188 850.936,1545.813 850.936,1549.250 850.740 C 1552.688 850.545,1549.875 850.385,1543.000 850.385 C 1536.125 850.385,1533.313 850.545,1536.750 850.740 M1575.813 850.683 C 1576.534 850.972,1577.397 850.936,1577.729 850.604 C 1578.061 850.272,1577.471 850.036,1576.417 850.079 C 1575.252 850.127,1575.015 850.364,1575.813 850.683 M1656.000 927.885 L 1656.000 1005.770 1650.750 1006.391 C 1647.862 1006.733,1631.325 1008.134,1614.000 1009.503 C 1565.721 1013.318,1546.557 1014.884,1534.000 1016.040 C 1511.550 1018.106,1501.335 1019.001,1488.000 1020.071 C 1480.575 1020.667,1468.650 1021.737,1461.500 1022.449 L 1448.500 1023.743 1461.052 1023.872 C 1467.956 1023.942,1483.256 1023.120,1495.052 1022.045 C 1547.441 1017.271,1649.232 1009.038,1656.250 1009.008 C 1657.902 1009.000,1658.000 1004.572,1658.000 930.070 L 1658.000 851.139 1660.250 850.706 C 1661.877 850.392,1661.600 850.235,1659.250 850.136 L 1656.000 850.000 1656.000 927.885 M1355.079 852.583 C 1355.127 853.748,1355.364 853.985,1355.683 853.188 C 1355.972 852.466,1355.936 851.603,1355.604 851.271 C 1355.272 850.939,1355.036 851.529,1355.079 852.583 M51.349 854.843 C 56.699 860.426,58.000 866.230,58.000 884.511 L 58.000 901.000 52.647 901.000 C 49.702 901.000,44.466 900.704,41.010 900.343 L 34.727 899.687 35.444 882.146 C 36.016 868.152,36.530 863.886,37.983 861.052 C 40.414 856.313,44.629 852.561,48.063 852.079 C 48.373 852.036,49.851 853.279,51.349 854.843 M123.370 855.864 C 128.005 860.702,129.000 866.233,129.000 887.159 L 129.000 906.000 118.000 906.000 L 107.000 906.000 107.044 886.750 C 107.091 866.011,107.674 862.738,112.434 856.498 C 115.837 852.036,119.499 851.824,123.370 855.864 M818.188 860.646 L 824.876 861.278 825.188 922.889 C 825.360 956.775,825.429 984.646,825.343 984.823 C 825.257 985.001,812.432 985.776,796.843 986.545 C 781.254 987.314,760.400 988.425,750.500 989.013 C 711.878 991.307,696.647 991.981,696.085 991.419 C 695.763 991.097,695.391 961.397,695.258 925.417 L 695.017 860.000 753.258 860.007 C 785.291 860.011,814.510 860.298,818.188 860.646 M1339.026 884.004 C 1354.513 885.840,1372.617 897.111,1380.425 909.779 C 1384.412 916.248,1384.935 923.731,1384.969 974.750 L 1385.000 1021.000 1381.250 1021.000 L 1377.500 1021.000 1377.500 970.726 L 1377.500 920.451 1374.000 913.476 C 1370.001 905.505,1364.913 901.052,1353.500 895.534 C 1343.112 890.512,1336.094 888.979,1320.459 888.317 C 1298.686 887.394,1290.179 889.496,1279.717 898.380 C 1272.031 904.908,1272.000 905.031,1271.998 929.200 C 1271.997 940.915,1271.700 965.013,1271.337 982.750 C 1270.726 1012.593,1270.546 1015.000,1268.920 1015.000 C 1263.738 1015.000,1264.000 1017.809,1264.006 962.143 C 1264.009 929.508,1264.394 909.123,1265.050 906.759 C 1267.485 897.990,1282.318 886.379,1294.000 884.098 C 1300.326 882.862,1328.891 882.803,1339.026 884.004 M1338.721 894.514 L 1345.943 897.210 1344.557 899.855 C 1343.037 902.756,1337.649 908.104,1334.500 909.838 C 1332.645 910.859,1332.700 910.941,1335.250 910.970 C 1336.763 910.986,1338.000 910.534,1338.000 909.965 C 1338.000 909.251,1338.601 909.251,1339.934 909.965 C 1342.310 911.236,1343.297 911.290,1342.566 910.107 C 1342.262 909.615,1343.248 908.904,1344.756 908.525 C 1347.263 907.896,1347.348 907.727,1345.749 906.558 C 1343.367 904.817,1343.478 904.500,1347.572 901.377 L 1351.144 898.653 1356.516 901.464 C 1359.471 903.010,1363.080 905.518,1364.536 907.038 L 1367.183 909.801 1363.842 910.518 C 1362.004 910.912,1360.050 911.513,1359.500 911.852 C 1358.950 912.192,1358.050 912.497,1357.500 912.530 C 1356.434 912.595,1356.441 913.446,1357.533 916.250 C 1358.157 917.854,1357.305 917.994,1347.357 917.929 C 1341.386 917.890,1332.900 917.410,1328.500 916.863 C 1319.352 915.725,1315.381 915.583,1305.349 916.036 C 1298.561 916.342,1297.850 916.156,1291.349 912.383 C 1286.845 909.769,1284.548 907.825,1284.639 906.704 C 1284.733 905.547,1284.031 905.000,1282.448 905.000 C 1277.121 905.000,1279.555 901.725,1287.904 897.658 C 1292.878 895.235,1295.473 895.585,1298.411 899.077 C 1300.608 901.688,1301.000 903.125,1301.000 908.577 C 1301.000 912.192,1301.437 915.000,1302.000 915.000 C 1302.550 915.000,1303.007 913.087,1303.015 910.750 C 1303.038 904.379,1303.899 903.591,1310.036 904.318 C 1312.913 904.659,1317.120 905.863,1319.384 906.995 C 1321.648 908.126,1322.689 908.411,1321.697 907.627 C 1320.002 906.288,1320.062 906.138,1322.697 905.134 C 1325.304 904.140,1325.237 904.106,1321.739 904.646 C 1319.671 904.965,1317.421 904.774,1316.739 904.222 C 1316.058 903.669,1312.976 902.699,1309.890 902.067 C 1304.502 900.962,1295.204 895.463,1296.512 894.154 C 1297.934 892.733,1313.245 891.107,1322.000 891.448 C 1329.204 891.729,1333.245 892.470,1338.721 894.514 M1622.387 918.750 C 1622.656 932.913,1622.905 945.097,1622.938 945.826 C 1622.987 946.871,1625.643 947.083,1635.498 946.826 L 1647.996 946.500 1647.998 919.750 L 1648.000 893.000 1634.948 893.000 L 1621.897 893.000 1622.387 918.750 M1574.750 894.689 C 1573.186 895.098,1573.007 896.604,1573.070 908.823 C 1573.112 916.995,1573.472 921.695,1573.963 920.500 C 1574.616 918.912,1574.893 918.809,1575.310 920.000 C 1576.266 922.736,1576.817 943.456,1576.001 946.000 C 1575.435 947.766,1575.141 946.151,1575.000 940.500 C 1574.673 927.389,1573.212 926.043,1573.100 938.750 L 1573.000 950.000 1582.853 950.000 C 1588.273 950.000,1595.473 949.711,1598.853 949.358 L 1605.000 948.715 1605.000 921.358 L 1605.000 894.000 1590.750 894.116 C 1582.912 894.180,1575.713 894.438,1574.750 894.689 M1451.000 926.731 L 1451.000 957.000 1455.250 956.930 C 1458.542 956.875,1459.049 956.666,1457.500 956.000 C 1455.864 955.297,1463.316 954.704,1473.000 954.766 C 1473.275 954.768,1474.625 955.076,1476.000 955.450 C 1477.911 955.971,1478.146 955.883,1477.000 955.081 C 1475.756 954.210,1475.874 954.028,1477.691 954.015 C 1478.896 954.007,1480.160 954.450,1480.500 955.000 C 1480.840 955.550,1483.566 956.000,1486.559 956.000 L 1492.000 956.000 1492.000 926.500 C 1492.000 901.701,1491.774 897.000,1490.582 897.000 C 1489.802 897.000,1488.378 896.699,1487.418 896.330 C 1486.291 895.898,1485.910 896.045,1486.342 896.745 C 1486.711 897.341,1486.447 898.029,1485.756 898.272 C 1484.189 898.825,1464.042 898.028,1462.000 897.332 C 1461.175 897.051,1458.362 896.741,1455.750 896.642 L 1451.000 896.462 1451.000 926.731 M1517.048 925.821 L 1517.032 955.272 1525.266 954.652 C 1529.795 954.310,1538.064 953.738,1543.641 953.380 L 1553.782 952.729 1554.380 949.115 C 1555.239 943.924,1555.111 898.699,1554.235 897.468 C 1553.777 896.826,1546.620 896.424,1535.282 896.403 L 1517.065 896.369 1517.048 925.821 M1644.000 897.833 C 1644.000 900.380,1642.933 901.189,1641.330 899.859 C 1640.307 899.010,1640.253 898.400,1641.110 897.367 C 1642.698 895.455,1644.000 895.665,1644.000 897.833 M1597.209 901.000 C 1597.016 903.325,1597.221 904.052,1597.820 903.166 C 1598.460 902.219,1598.738 902.654,1598.777 904.666 C 1598.807 906.225,1599.156 910.763,1599.551 914.750 C 1600.281 922.121,1599.279 924.259,1597.048 920.090 C 1595.764 917.691,1592.617 918.360,1591.193 921.337 C 1590.443 922.902,1590.304 920.322,1590.686 912.000 C 1591.274 899.232,1592.058 896.725,1595.318 897.189 C 1597.154 897.451,1597.454 898.055,1597.209 901.000 M1292.000 900.957 C 1295.494 903.855,1300.000 905.491,1300.000 903.861 C 1300.000 903.388,1299.255 903.000,1298.344 903.000 C 1297.434 903.000,1295.214 901.875,1293.411 900.500 C 1288.864 897.032,1287.716 897.403,1292.000 900.957 M1554.000 901.441 C 1554.000 903.334,1553.563 905.152,1553.029 905.482 C 1551.847 906.212,1550.558 901.593,1551.361 899.502 C 1552.408 896.772,1554.000 897.941,1554.000 901.441 M1586.818 901.339 C 1586.992 902.815,1586.430 905.437,1585.568 907.165 C 1583.772 910.765,1583.322 914.597,1585.000 912.000 C 1585.533 911.175,1586.020 910.950,1586.082 911.500 C 1586.353 913.915,1585.786 920.810,1585.033 924.250 C 1584.582 926.313,1584.508 928.000,1584.868 928.000 C 1585.229 928.000,1585.285 930.587,1584.993 933.750 C 1584.628 937.708,1584.894 940.201,1585.846 941.750 C 1586.690 943.123,1586.818 944.000,1586.174 944.000 C 1585.593 944.000,1584.821 943.519,1584.458 942.932 C 1584.095 942.344,1583.158 942.109,1582.376 942.409 C 1581.226 942.850,1581.165 942.560,1582.058 940.892 C 1582.665 939.757,1582.901 938.567,1582.581 938.248 C 1582.261 937.928,1582.000 938.218,1582.000 938.892 C 1582.000 939.566,1581.532 939.829,1580.959 939.475 C 1580.387 939.121,1580.198 937.952,1580.539 936.878 C 1580.880 935.803,1581.169 928.753,1581.182 921.212 C 1581.198 911.735,1581.676 906.020,1582.731 902.709 C 1584.361 897.591,1586.297 896.941,1586.818 901.339 M1636.574 899.696 C 1636.437 900.628,1635.690 901.563,1634.913 901.772 C 1633.808 902.069,1633.827 901.921,1635.000 901.091 C 1635.825 900.508,1636.136 900.024,1635.691 900.015 C 1635.246 900.007,1635.160 899.550,1635.500 899.000 C 1636.422 897.508,1636.854 897.788,1636.574 899.696 M1464.423 901.808 C 1471.920 901.982,1472.872 902.883,1470.693 907.740 C 1469.219 911.027,1469.210 911.217,1470.625 909.250 C 1471.516 908.013,1472.594 907.000,1473.021 907.000 C 1473.851 907.000,1478.000 914.461,1478.000 915.954 C 1478.000 917.987,1472.674 923.091,1471.115 922.553 C 1469.682 922.058,1469.672 922.136,1471.027 923.248 C 1472.249 924.250,1472.430 925.896,1471.934 931.500 C 1471.593 935.350,1471.244 937.911,1471.157 937.191 C 1471.067 936.442,1470.465 936.190,1469.750 936.601 C 1469.063 936.997,1468.820 936.966,1469.210 936.534 C 1469.601 936.101,1469.325 934.566,1468.598 933.123 C 1466.778 929.513,1465.934 921.991,1467.104 919.805 C 1467.884 918.348,1467.689 918.000,1466.093 918.000 C 1464.526 918.000,1463.648 916.549,1461.868 911.023 C 1459.000 902.119,1458.216 902.607,1460.854 911.654 C 1461.952 915.419,1463.065 920.228,1463.327 922.341 C 1463.746 925.713,1463.576 926.122,1461.937 925.694 C 1460.705 925.372,1459.865 925.851,1459.467 927.103 C 1458.841 929.077,1457.000 929.746,1457.000 928.000 C 1457.000 927.450,1457.474 927.000,1458.054 927.000 C 1459.063 927.000,1458.579 908.199,1457.410 902.000 C 1457.151 900.625,1457.290 899.989,1457.720 900.586 C 1458.149 901.183,1461.165 901.733,1464.423 901.808 M1477.687 903.032 C 1479.262 904.801,1480.992 905.833,1481.836 905.510 C 1482.984 905.069,1483.040 905.247,1482.106 906.372 C 1481.459 907.152,1481.058 908.399,1481.215 909.145 C 1481.917 912.484,1478.463 910.012,1475.773 905.250 C 1472.499 899.456,1473.484 898.315,1477.687 903.032 M1523.350 901.469 C 1524.135 903.516,1522.911 913.000,1521.861 913.000 C 1521.387 913.000,1521.000 910.075,1521.000 906.500 C 1521.000 900.409,1522.066 898.125,1523.350 901.469 M1631.337 901.325 C 1631.620 900.321,1631.772 901.075,1631.675 903.000 C 1631.539 905.728,1631.114 906.435,1629.750 906.206 C 1627.502 905.829,1627.436 908.719,1629.636 911.150 C 1631.154 912.827,1631.146 913.007,1629.535 913.625 C 1628.506 914.020,1627.438 913.722,1626.914 912.896 C 1625.745 911.049,1625.755 906.269,1626.931 905.543 C 1627.443 905.226,1627.642 903.757,1627.374 902.277 C 1626.899 899.658,1626.938 899.634,1628.855 901.369 C 1630.745 903.080,1630.845 903.078,1631.337 901.325 M1539.012 902.968 C 1539.053 904.721,1533.328 915.889,1532.515 915.642 C 1531.973 915.478,1531.123 913.923,1530.625 912.188 C 1529.877 909.579,1530.134 908.428,1532.108 905.548 C 1533.768 903.125,1535.182 902.120,1536.748 902.250 C 1537.986 902.352,1539.006 902.676,1539.012 902.968 M1528.541 904.933 C 1528.179 905.520,1527.403 906.000,1526.819 906.000 C 1526.155 906.000,1526.231 905.426,1527.020 904.476 C 1528.392 902.823,1529.617 903.192,1528.541 904.933 M1547.000 906.118 C 1547.000 906.668,1546.592 906.866,1546.093 906.558 C 1545.595 906.249,1545.422 906.898,1545.710 907.999 C 1546.038 909.252,1545.741 910.000,1544.917 910.000 C 1543.893 910.000,1543.867 910.267,1544.800 911.200 C 1546.073 912.473,1546.461 916.000,1545.329 916.000 C 1544.960 916.000,1543.844 915.264,1542.850 914.364 C 1541.202 912.873,1540.987 912.870,1540.429 914.323 C 1539.126 917.721,1531.138 925.267,1529.507 924.641 C 1528.621 924.301,1528.142 924.421,1528.442 924.907 C 1528.743 925.393,1528.265 926.068,1527.382 926.407 C 1526.130 926.887,1526.031 927.333,1526.934 928.420 C 1527.678 929.316,1527.863 931.553,1527.451 934.659 L 1526.809 939.500 1530.026 939.408 C 1534.405 939.282,1535.728 936.756,1532.830 934.056 C 1531.616 932.925,1530.258 932.000,1529.811 932.000 C 1528.302 932.000,1528.988 929.219,1530.655 928.579 C 1531.647 928.198,1533.176 928.756,1534.470 929.972 C 1535.657 931.087,1537.050 931.998,1537.564 931.995 C 1538.079 931.992,1537.150 930.898,1535.500 929.563 C 1532.705 927.302,1532.613 927.022,1534.152 925.452 C 1535.700 923.873,1535.873 923.895,1536.889 925.793 C 1537.537 927.003,1538.684 927.649,1539.737 927.397 C 1540.707 927.164,1542.175 927.433,1543.000 927.994 C 1544.275 928.862,1544.125 929.310,1542.000 930.985 C 1540.625 932.069,1538.713 932.966,1537.750 932.978 C 1536.787 932.990,1536.000 933.450,1536.000 934.000 C 1536.000 934.550,1536.000 935.337,1536.000 935.750 C 1536.000 936.163,1536.466 936.500,1537.034 936.500 C 1537.603 936.500,1539.066 937.291,1540.284 938.259 C 1541.503 939.226,1543.909 941.133,1545.630 942.497 C 1547.352 943.861,1549.008 945.924,1549.312 947.083 C 1549.829 949.060,1549.573 949.155,1545.181 948.610 C 1542.607 948.290,1539.645 947.999,1538.601 947.963 C 1537.171 947.914,1536.985 947.615,1537.851 946.749 C 1538.483 946.117,1538.939 944.228,1538.864 942.550 C 1538.744 939.869,1538.672 939.798,1538.267 941.961 C 1537.751 944.714,1535.355 946.920,1532.828 946.968 C 1531.909 946.986,1529.884 944.997,1528.328 942.549 C 1525.308 937.796,1522.944 935.991,1523.427 938.808 C 1523.587 939.738,1523.385 942.750,1522.978 945.500 C 1522.425 949.236,1522.262 947.656,1522.334 939.250 C 1522.386 933.063,1522.783 928.000,1523.215 928.000 C 1523.647 928.000,1524.000 928.450,1524.000 929.000 C 1524.000 929.550,1524.660 930.000,1525.466 930.000 C 1526.627 930.000,1526.480 929.232,1524.760 926.319 C 1523.164 923.613,1522.924 922.525,1523.855 922.215 C 1524.790 921.903,1524.658 921.279,1523.351 919.835 C 1521.844 918.170,1521.795 917.745,1523.018 916.989 C 1523.809 916.500,1524.936 914.674,1525.523 912.932 L 1526.590 909.764 1528.420 913.823 C 1530.822 919.150,1532.430 919.609,1535.177 915.752 C 1541.180 907.320,1547.000 902.578,1547.000 906.118 M1639.396 907.155 C 1641.324 909.907,1639.913 913.052,1637.082 912.311 C 1634.590 911.659,1633.725 909.382,1635.039 906.928 C 1636.374 904.432,1637.531 904.492,1639.396 907.155 M1486.667 913.413 L 1486.728 919.826 1483.976 916.813 L 1481.225 913.800 1483.362 910.442 C 1484.538 908.596,1485.749 907.066,1486.053 907.042 C 1486.357 907.019,1486.633 909.886,1486.667 913.413 M1289.000 912.561 C 1289.000 912.841,1288.159 912.620,1287.131 912.070 C 1286.104 911.520,1285.034 911.299,1284.755 911.578 C 1284.476 911.858,1283.979 911.387,1283.650 910.531 C 1283.112 909.128,1283.343 909.126,1286.027 910.514 C 1287.662 911.359,1289.000 912.281,1289.000 912.561 M1597.015 911.750 C 1597.026 913.751,1597.273 914.116,1597.923 913.091 C 1598.413 912.316,1598.583 911.078,1598.300 910.341 C 1597.489 908.226,1596.999 908.764,1597.015 911.750 M1285.500 913.594 C 1291.299 915.825,1291.379 915.904,1287.890 915.951 C 1285.904 915.978,1282.191 915.714,1279.640 915.364 C 1275.567 914.806,1275.000 914.431,1275.000 912.297 C 1275.000 909.555,1274.996 909.554,1285.500 913.594 M36.768 911.715 C 35.265 911.943,32.565 911.947,30.768 911.725 C 28.971 911.502,30.200 911.315,33.500 911.310 C 36.800 911.304,38.271 911.486,36.768 911.715 M1328.000 911.397 C 1328.000 912.151,1331.766 914.072,1335.139 915.040 C 1338.790 916.087,1338.870 914.854,1335.250 913.333 C 1331.251 911.654,1328.000 910.786,1328.000 911.397 M1641.502 919.632 C 1640.080 924.885,1639.514 925.841,1638.382 924.902 C 1637.341 924.038,1636.650 924.046,1635.579 924.935 C 1634.406 925.908,1634.243 925.711,1634.649 923.807 C 1634.919 922.538,1633.986 924.200,1632.575 927.500 C 1631.164 930.800,1630.007 935.386,1630.005 937.691 C 1630.000 941.758,1628.404 944.469,1627.577 941.813 C 1626.710 939.029,1626.143 918.554,1626.990 920.648 C 1627.469 921.829,1628.341 923.093,1628.930 923.457 C 1629.518 923.820,1630.032 925.329,1630.070 926.809 C 1630.133 929.191,1630.310 929.040,1631.611 925.500 C 1632.497 923.089,1632.840 920.063,1632.475 917.882 C 1631.989 914.982,1632.223 914.128,1633.654 913.579 C 1634.636 913.203,1635.114 913.219,1634.717 913.616 C 1633.989 914.345,1636.724 918.000,1637.998 918.000 C 1638.376 918.000,1639.540 916.413,1640.584 914.474 C 1643.185 909.644,1643.589 911.919,1641.502 919.632 M53.750 912.716 C 52.237 912.945,49.763 912.945,48.250 912.716 C 46.737 912.487,47.975 912.300,51.000 912.300 C 54.025 912.300,55.263 912.487,53.750 912.716 M1350.756 912.664 C 1351.447 912.943,1351.761 913.577,1351.454 914.074 C 1351.147 914.571,1351.632 914.695,1352.532 914.349 C 1353.841 913.847,1353.901 913.553,1352.834 912.876 C 1352.100 912.411,1351.050 912.059,1350.500 912.094 C 1349.950 912.129,1350.065 912.386,1350.756 912.664 M65.269 913.656 C 64.592 913.930,63.242 913.947,62.269 913.693 C 61.296 913.439,61.850 913.215,63.500 913.195 C 65.150 913.175,65.946 913.382,65.269 913.656 M1372.464 917.250 C 1373.216 919.038,1373.682 920.650,1373.500 920.832 C 1372.683 921.652,1362.082 919.677,1362.620 918.805 C 1363.333 917.653,1369.159 914.009,1370.298 914.004 C 1370.737 914.002,1371.712 915.462,1372.464 917.250 M122.250 916.706 C 121.013 916.944,118.987 916.944,117.750 916.706 C 116.513 916.467,117.525 916.272,120.000 916.272 C 122.475 916.272,123.487 916.467,122.250 916.706 M1482.550 917.081 C 1482.918 917.676,1482.038 919.395,1480.595 920.901 C 1479.152 922.407,1478.219 923.886,1478.521 924.187 C 1478.822 924.489,1477.929 924.518,1476.535 924.251 C 1473.511 923.673,1473.282 922.455,1475.932 921.036 C 1476.995 920.467,1478.150 919.102,1478.500 918.001 C 1479.184 915.844,1481.465 915.326,1482.550 917.081 M1634.000 918.000 C 1634.000 919.100,1634.408 920.000,1634.906 920.000 C 1635.405 920.000,1635.577 919.100,1635.290 918.000 C 1635.002 916.900,1634.594 916.000,1634.383 916.000 C 1634.173 916.000,1634.000 916.900,1634.000 918.000 M1525.630 918.147 C 1524.120 919.024,1524.024 919.401,1525.130 920.102 C 1527.164 921.390,1527.571 921.207,1527.571 919.000 C 1527.571 917.900,1527.555 917.014,1527.536 917.030 C 1527.516 917.047,1526.659 917.550,1525.630 918.147 M1358.847 919.962 C 1360.983 921.114,1311.855 920.280,1308.500 919.108 C 1306.340 918.353,1312.779 918.224,1331.500 918.647 C 1345.800 918.970,1358.106 919.562,1358.847 919.962 M1280.000 967.117 L 1280.000 1014.000 1277.500 1014.000 L 1275.000 1014.000 1275.014 968.750 C 1275.021 943.862,1275.285 922.540,1275.600 921.366 C 1276.004 919.862,1276.737 919.380,1278.086 919.733 C 1279.937 920.217,1280.000 921.779,1280.000 967.117 M1545.411 922.077 C 1549.971 927.496,1547.734 930.689,1542.472 926.269 C 1540.838 924.896,1540.293 924.036,1541.262 924.359 C 1542.904 924.906,1542.919 924.744,1541.486 921.973 C 1540.174 919.435,1540.159 919.000,1541.385 919.000 C 1542.176 919.000,1543.987 920.385,1545.411 922.077 M1290.133 922.750 C 1290.335 923.712,1290.355 944.862,1290.177 969.750 L 1289.854 1015.000 1286.427 1015.000 L 1283.000 1015.000 1283.000 968.000 L 1283.000 921.000 1286.383 921.000 C 1288.799 921.000,1289.872 921.500,1290.133 922.750 M1300.435 922.796 C 1300.749 923.783,1300.799 937.846,1300.547 954.046 C 1300.295 970.246,1300.069 990.841,1300.044 999.813 L 1300.000 1016.127 1296.750 1015.813 C 1293.612 1015.511,1293.488 1015.328,1293.158 1010.500 C 1292.970 1007.750,1293.135 986.487,1293.526 963.250 L 1294.235 921.000 1297.050 921.000 C 1298.880 921.000,1300.065 921.628,1300.435 922.796 M1596.500 922.936 C 1596.500 924.371,1591.864 930.930,1590.820 930.972 C 1589.910 931.009,1591.415 925.910,1593.120 923.179 C 1594.546 920.895,1596.500 920.755,1596.500 922.936 M1312.760 969.250 L 1313.020 1016.000 1309.077 1016.000 C 1306.167 1016.000,1305.012 1015.542,1304.667 1014.250 C 1303.935 1011.511,1303.869 931.057,1304.595 926.217 C 1305.233 921.958,1305.297 921.898,1308.872 922.197 L 1312.500 922.500 1312.760 969.250 M1484.571 923.927 C 1484.571 924.986,1484.218 925.635,1483.786 925.368 C 1482.399 924.511,1482.947 926.805,1484.500 928.357 C 1486.322 930.180,1486.463 932.093,1484.750 931.750 C 1484.063 931.612,1483.563 932.288,1483.639 933.250 C 1483.809 935.396,1482.664 935.505,1481.000 933.500 C 1479.980 932.271,1480.049 932.000,1481.378 932.000 C 1483.131 932.000,1483.650 928.520,1482.044 927.527 C 1480.638 926.658,1482.304 922.972,1484.536 922.015 C 1484.555 922.007,1484.571 922.867,1484.571 923.927 M1321.993 935.250 C 1321.989 941.987,1321.699 950.538,1321.348 954.250 C 1320.759 960.492,1320.534 961.000,1318.355 961.000 L 1316.000 961.000 1316.000 942.000 L 1316.000 923.000 1319.000 923.000 L 1322.000 923.000 1321.993 935.250 M1330.512 924.391 C 1330.518 924.451,1330.369 932.712,1330.181 942.750 L 1329.838 961.000 1327.419 961.000 L 1325.000 961.000 1325.000 941.981 L 1325.000 922.962 1327.750 923.622 C 1329.263 923.984,1330.505 924.331,1330.512 924.391 M1342.000 971.000 L 1342.000 1018.000 1338.000 1018.000 L 1334.000 1018.000 1334.000 971.000 L 1334.000 924.000 1338.000 924.000 L 1342.000 924.000 1342.000 971.000 M1355.000 972.000 L 1355.000 1019.000 1350.580 1019.000 L 1346.159 1019.000 1345.812 973.250 C 1345.621 948.087,1345.634 926.938,1345.840 926.250 C 1346.065 925.497,1347.959 925.000,1350.607 925.000 L 1355.000 925.000 1355.000 972.000 M1366.760 972.750 L 1367.020 1020.000 1362.510 1020.000 L 1358.000 1020.000 1358.000 972.443 L 1358.000 924.885 1362.250 925.193 L 1366.500 925.500 1366.760 972.750 M1478.015 927.367 C 1478.024 927.990,1478.487 927.825,1479.046 927.000 C 1479.821 925.854,1479.933 926.090,1479.519 928.000 C 1478.785 931.381,1478.429 943.255,1479.023 944.500 C 1479.285 945.050,1479.068 945.725,1478.540 946.000 C 1478.012 946.275,1476.549 944.971,1475.290 943.102 C 1473.561 940.536,1473.000 938.292,1473.000 933.934 C 1473.000 930.760,1473.254 927.501,1473.565 926.692 C 1474.209 925.013,1477.991 925.586,1478.015 927.367 M1373.477 962.250 C 1373.450 1005.602,1373.095 1021.094,1372.180 1018.785 C 1371.806 1017.842,1371.337 996.580,1371.137 971.535 C 1370.834 933.582,1371.001 926.000,1372.137 926.000 C 1373.263 926.001,1373.496 932.303,1373.477 962.250 M1643.460 931.750 C 1643.831 932.987,1643.707 934.000,1643.184 934.000 C 1642.661 934.000,1642.007 933.212,1641.730 932.250 C 1641.453 931.288,1640.887 929.600,1640.471 928.500 C 1639.797 926.714,1639.880 926.661,1641.251 928.000 C 1642.095 928.825,1643.089 930.513,1643.460 931.750 M1460.755 932.750 C 1460.495 934.263,1459.934 936.400,1459.507 937.500 L 1458.731 939.500 1460.307 937.500 C 1461.585 935.878,1462.225 935.716,1463.691 936.641 C 1464.686 937.269,1465.397 938.710,1465.270 939.843 C 1464.967 942.568,1459.042 952.144,1458.042 951.526 C 1457.612 951.260,1457.628 949.121,1458.076 946.772 C 1458.525 944.422,1458.624 940.093,1458.296 937.151 C 1457.852 933.153,1458.055 931.579,1459.101 930.917 C 1461.160 929.613,1461.272 929.738,1460.755 932.750 M1587.777 935.750 C 1587.730 940.361,1587.524 941.067,1586.736 939.316 C 1585.877 937.407,1586.455 930.000,1587.463 930.000 C 1587.668 930.000,1587.809 932.587,1587.777 935.750 M1599.000 931.545 C 1599.000 933.795,1594.437 938.000,1591.996 938.000 C 1589.208 938.000,1590.444 935.786,1595.047 932.536 C 1599.217 929.592,1599.000 929.646,1599.000 931.545 M1638.474 932.950 C 1640.500 936.868,1640.491 941.667,1638.457 941.667 C 1637.582 941.667,1637.135 941.089,1637.426 940.333 C 1637.707 939.600,1637.506 939.000,1636.980 939.000 C 1636.453 939.000,1636.111 940.075,1636.220 941.388 C 1636.338 942.817,1636.912 943.587,1637.648 943.305 C 1638.325 943.045,1639.635 943.256,1640.560 943.774 C 1641.816 944.477,1640.668 944.892,1636.015 945.419 C 1632.591 945.806,1629.537 945.870,1629.228 945.562 C 1628.919 945.253,1629.417 945.000,1630.333 945.000 C 1631.250 945.000,1632.000 944.523,1632.000 943.941 C 1632.000 943.359,1632.419 943.141,1632.931 943.457 C 1634.644 944.516,1635.134 942.029,1633.633 939.887 C 1632.818 938.723,1632.329 937.260,1632.546 936.635 C 1635.245 928.874,1636.094 928.347,1638.474 932.950 M1466.743 935.237 C 1466.870 936.924,1466.693 937.121,1466.022 936.035 C 1465.532 935.243,1465.354 934.237,1465.625 933.798 C 1466.379 932.577,1466.560 932.810,1466.743 935.237 M1546.965 934.934 C 1547.534 935.998,1548.000 937.628,1548.000 938.557 C 1548.000 939.938,1547.729 940.020,1546.513 939.011 C 1545.695 938.332,1544.246 938.075,1543.293 938.441 C 1542.340 938.807,1541.878 938.789,1542.265 938.402 C 1542.652 938.015,1542.188 937.099,1541.234 936.368 C 1539.717 935.204,1539.687 934.913,1541.000 934.034 C 1543.362 932.454,1545.837 932.827,1546.965 934.934 M1532.813 935.938 C 1533.063 936.688,1532.688 937.063,1531.938 936.813 C 1531.216 936.572,1530.428 935.784,1530.188 935.063 C 1529.938 934.313,1530.313 933.938,1531.063 934.188 C 1531.784 934.428,1532.572 935.216,1532.813 935.938 M1487.115 941.250 C 1487.267 949.500,1487.019 951.356,1485.647 952.234 C 1483.953 953.317,1482.647 952.634,1481.303 949.960 C 1479.803 946.977,1481.425 944.278,1483.622 946.101 C 1484.368 946.720,1484.731 947.626,1484.430 948.113 C 1484.129 948.601,1484.359 949.000,1484.941 949.000 C 1486.454 949.000,1486.272 948.177,1483.918 944.368 C 1481.638 940.679,1480.726 940.024,1481.666 942.750 C 1482.177 944.233,1482.041 944.207,1480.773 942.579 C 1479.278 940.660,1479.460 937.452,1481.121 936.425 C 1481.604 936.127,1482.036 936.921,1482.079 938.191 C 1482.130 939.683,1482.354 939.970,1482.713 939.000 C 1483.502 936.869,1485.095 935.000,1486.122 935.000 C 1486.605 935.000,1487.052 937.813,1487.115 941.250 M1600.000 939.902 C 1600.000 942.258,1599.407 943.011,1596.851 943.902 C 1592.329 945.478,1591.830 945.311,1592.184 942.333 C 1592.472 939.903,1594.041 938.814,1599.750 937.076 C 1599.888 937.034,1600.000 938.306,1600.000 939.902 M1467.795 944.272 C 1466.559 947.948,1465.156 950.000,1463.878 950.000 C 1462.470 950.000,1462.867 947.265,1464.358 946.693 C 1465.105 946.406,1465.999 944.753,1466.346 943.020 C 1466.693 941.286,1467.405 940.132,1467.929 940.456 C 1468.523 940.823,1468.472 942.258,1467.795 944.272 M1589.124 943.267 C 1588.136 944.247,1588.022 944.132,1588.564 942.707 C 1588.940 941.721,1589.499 941.166,1589.807 941.474 C 1590.115 941.781,1589.808 942.588,1589.124 943.267 M1476.549 950.920 C 1476.134 951.593,1473.478 951.985,1470.039 951.882 L 1464.230 951.708 1467.115 948.887 C 1468.702 947.336,1470.000 945.272,1470.000 944.300 C 1470.000 942.953,1470.861 943.394,1473.626 946.159 C 1475.672 948.205,1476.945 950.279,1476.549 950.920 M1452.662 947.250 C 1452.385 947.938,1452.158 947.375,1452.158 946.000 C 1452.158 944.625,1452.385 944.063,1452.662 944.750 C 1452.940 945.438,1452.940 946.563,1452.662 947.250 M1529.500 948.000 C 1529.160 948.550,1528.207 949.000,1527.382 949.000 C 1526.557 949.000,1526.160 948.550,1526.500 948.000 C 1526.840 947.450,1527.793 947.000,1528.618 947.000 C 1529.443 947.000,1529.840 947.450,1529.500 948.000 M1596.500 948.057 C 1594.300 948.512,1589.800 948.835,1586.500 948.774 L 1580.500 948.664 1586.500 948.000 C 1589.800 947.635,1594.300 947.312,1596.500 947.283 L 1600.500 947.230 1596.500 948.057 M1542.500 951.000 C 1540.850 951.420,1537.475 951.749,1535.000 951.731 L 1530.500 951.700 1535.000 951.000 C 1537.475 950.615,1540.850 950.286,1542.500 950.269 L 1545.500 950.237 1542.500 951.000 M1483.729 954.604 C 1483.397 954.936,1482.534 954.972,1481.813 954.683 C 1481.015 954.364,1481.252 954.127,1482.417 954.079 C 1483.471 954.036,1484.061 954.272,1483.729 954.604 M1462.813 956.683 C 1463.534 956.972,1464.397 956.936,1464.729 956.604 C 1465.061 956.272,1464.471 956.036,1463.417 956.079 C 1462.252 956.127,1462.015 956.364,1462.813 956.683 M1322.083 964.750 C 1322.129 966.263,1322.273 968.438,1322.404 969.583 C 1322.595 971.258,1322.088 971.667,1319.821 971.667 C 1317.116 971.667,1317.000 971.469,1317.000 966.833 C 1317.000 962.344,1317.178 962.000,1319.500 962.000 C 1321.540 962.000,1322.015 962.506,1322.083 964.750 M1322.000 997.113 L 1322.000 1017.000 1319.000 1017.000 L 1316.000 1017.000 1316.000 996.673 L 1316.000 976.346 1319.000 976.787 L 1322.000 977.227 1322.000 997.113 M1330.000 997.000 C 1330.000 1016.333,1329.933 1017.000,1328.000 1017.000 C 1326.067 1017.000,1326.000 1016.333,1326.000 997.000 C 1326.000 977.667,1326.067 977.000,1328.000 977.000 C 1329.933 977.000,1330.000 977.667,1330.000 997.000 " stroke="none" fill="black" fill-rule="evenodd"/></svg>