<?xml version="1.0" encoding="UTF-8" standalone="no"?><!DOCTYPE svg PUBLIC "-//W3C//DTD SVG 1.1//EN" "http://www.w3.org/Graphics/SVG/1.1/DTD/svg11.dtd"><svg width="100%" height="100%" viewBox="0 0 501 558" version="1.1" xmlns="http://www.w3.org/2000/svg" xmlns:xlink="http://www.w3.org/1999/xlink" xml:space="preserve" xmlns:serif="http://www.serif.com/" style="fill-rule:evenodd;clip-rule:evenodd;stroke-linejoin:round;stroke-miterlimit:2;"><g id="g1"><g id="g2"><path id="path8" d="M106.215,556.834c12.402,-0.102 32.502,-0.102 44.667,-0c12.165,0.101 2.018,0.185 -22.549,0.184c-24.566,0 -34.519,-0.083 -22.118,-0.185l0,0.001Zm-30.215,-307.086c0,-0.138 0.525,-0.663 1.167,-1.166c1.057,-0.83 1.081,-0.806 0.251,0.251c-0.87,1.111 -1.418,1.464 -1.418,0.915Zm261.012,-74.581c-47.601,-40.792 -86.726,-74.117 -86.946,-74.056c-0.22,0.061 -0.399,-22.664 -0.399,-50.5c-0,-27.836 0.05,-50.611 0.111,-50.611c0.353,0 249.433,213.769 249.639,214.249c0.221,0.515 -74.002,35.084 -75.33,35.084c-0.291,0 -39.475,-33.375 -87.075,-74.166Z" style="fill-rule:nonzero;stroke:#fff;stroke-width:4.17px;"/><path id="path7" d="M182.826,519.153l-38.159,-38.18l-0,-28.723c-0,-15.798 0.311,-32.592 0.691,-37.32c2.339,-29.1 12.978,-54.16 30.889,-72.756c8.384,-8.705 15.802,-14.309 25.731,-19.441c14.402,-7.444 26.599,-10.561 43.785,-11.189c12.395,-0.453 20.265,0.331 31.237,3.109c17.365,4.398 32.044,12.915 45.368,26.322c13.101,13.184 22.757,30.53 27.847,50.025c3.835,14.689 3.983,16.578 4.28,54.613l0.276,35.279l-38.217,38.221l-38.216,38.22l-57.354,0l-38.158,-38.18Zm72.443,-14.541c3.172,-1.934 4.554,-3.762 5.722,-7.566c0.845,-2.754 1.009,-8.837 1.009,-37.425l0,-34.136l13.833,-0.32c15.701,-0.363 19.237,-1.09 22.606,-4.647c5.759,-6.08 4.081,-14.528 -3.64,-18.319c-3.753,-1.843 -3.975,-1.868 -18.25,-2.078l-14.452,-0.213l-0.215,-13.454c-0.211,-13.177 -0.254,-13.532 -2.081,-17.253c-2.397,-4.882 -5.353,-6.841 -10.215,-6.77c-4.856,0.07 -7.706,1.989 -10.054,6.77c-1.827,3.721 -1.87,4.077 -2.08,17.242l-0.216,13.444l-28.236,0.446l-4,2c-5.53,2.766 -7.197,5.361 -6.869,10.696c0.304,4.945 2.016,7.611 6.181,9.628c4.118,1.993 9.571,2.647 22.188,2.663l10.833,0.013l0,33.879c0,36.325 0.158,38.265 3.44,42.437c3.487,4.434 9.925,5.749 14.496,2.962l-0,0.001Zm-19.269,-209.281c-18.745,-4.644 -33.783,-18.651 -40.078,-37.331c-1.894,-5.618 -2.169,-7.387 -2.434,-15.667c-0.251,-7.857 -0.079,-10.251 1.088,-15.139c4.913,-20.576 20.482,-36.455 41.091,-41.908c7.215,-1.909 19.217,-2.078 26.666,-0.374c13.385,3.061 26.557,12.019 34.269,23.306c3.113,4.555 7.045,13.305 8.44,18.782c1.751,6.873 1.605,20.242 -0.298,27.333c-5.638,21.004 -22.215,37.015 -42.807,41.347c-6.639,1.397 -19.597,1.222 -25.937,-0.349l0,0Z" style="fill-rule:nonzero;stroke:#fff;stroke-width:4.17px;"/><path id="path6" d="M279.333,556.831c0,-0.276 17.026,-17.526 37.836,-38.333l37.835,-37.831l68.667,-0l38.329,38.333l38.329,38.333l-110.498,0c-60.774,0 -110.498,-0.225 -110.498,-0.502Z" style="fill-rule:nonzero;stroke:#fff;stroke-width:4.17px;"/><path id="path5" d="M0,385.907l0,-171.089l37.98,17.424l37.981,17.425l0.039,231.337l-38,37.996l-38,37.996l0,-171.089Z" style="fill-rule:nonzero;stroke:#fff;stroke-width:4.17px;"/><path id="path4" d="M86.671,556.833l-86.328,-0.171l37.993,-37.998l37.993,-37.997l68.009,-0l38.329,38.333l38.329,38.333l-23.998,-0.164c-13.199,-0.09 -62.846,-0.241 -110.327,-0.336l0,0Z" style="fill-rule:nonzero;stroke:#fff;stroke-width:4.17px;"/><path id="path3" d="M461.833,518.833l-37.833,-37.837l0,-231.386l37.833,-17.388l37.834,-17.387l0.169,85.636c0.093,47.1 0.093,124.013 -0,170.918l-0.169,85.282l-37.834,-37.838Z" style="fill-rule:nonzero;stroke:#fff;stroke-width:4.17px;"/><path id="path2" d="M37.821,231.853c-20.816,-9.585 -37.616,-17.635 -37.334,-17.888c1.453,-1.306 247.376,-211.768 248.358,-212.547c1.093,-0.866 1.155,1.752 1.155,49.027l0,49.942l-86.692,74.307c-47.681,40.868 -86.906,74.369 -87.167,74.446c-0.261,0.078 -17.505,-7.702 -38.32,-17.287Z" style="fill-rule:nonzero;stroke:#fff;stroke-width:4.17px;"/></g></g></svg>